<?xml version="1.0" standalone="no"?>
<!DOCTYPE svg PUBLIC "-//W3C//DTD SVG 20010904//EN"
 "http://www.w3.org/TR/2001/REC-SVG-20010904/DTD/svg10.dtd">
<svg version="1.0" xmlns="http://www.w3.org/2000/svg"
 width="360.000000pt" height="360.000000pt" viewBox="0 0 360.000000 360.000000"
 preserveAspectRatio="xMidYMid meet">
<metadata>
Created by potrace 1.14, written by Peter Selinger 2001-2017
</metadata>
<g transform="translate(0.000000,360.000000) scale(0.100000,-0.100000)"
fill="#000000" stroke="none">
<path d="M12 3588 c9 -5 9 -8 1 -8 -12 0 -12 -24 0 -36 4 -4 1 -14 -6 -22 -11
-13 -9 -14 12 -1 19 11 25 11 28 1 3 -7 12 -19 20 -27 9 -10 12 -22 7 -33 -4
-9 -6 -20 -6 -24 1 -5 -6 -8 -15 -9 -14 0 -15 -2 -3 -6 8 -3 18 -11 22 -17 11
-17 22 2 28 52 l5 47 44 3 c36 3 43 0 38 -12 -4 -10 -1 -13 8 -9 8 3 12 9 9
14 -3 5 2 9 10 9 10 0 13 -6 10 -15 -5 -11 -2 -13 9 -9 9 3 14 11 11 19 -3 7
5 15 17 18 50 13 31 -23 -26 -51 -25 -12 -45 -26 -45 -32 0 -14 -27 -12 -34 3
-3 6 -4 3 -3 -8 1 -15 -4 -20 -19 -19 -12 0 -20 -4 -18 -10 2 -6 -20 -18 -51
-27 -51 -15 -54 -15 -45 1 6 11 5 21 -3 30 -9 10 -9 11 1 6 6 -4 12 -2 12 3 0
6 -4 11 -10 11 -5 0 -6 7 -3 17 4 11 3 14 -5 9 -7 -4 -12 -31 -12 -61 0 -44 3
-53 15 -49 19 8 47 -14 38 -29 -3 -6 -1 -7 5 -3 7 4 12 3 12 -2 0 -12 -57 -62
-63 -56 -3 3 -4 -6 -3 -20 1 -21 3 -23 16 -12 26 21 95 39 121 30 68 -22 143
-32 163 -20 13 9 21 6 36 -14 10 -13 17 -27 14 -31 -2 -4 2 -9 10 -12 9 -4 13
4 14 24 0 16 -5 29 -11 29 -12 0 -37 59 -40 95 -1 11 -5 25 -9 31 -4 6 -10 25
-13 42 -4 24 -2 32 9 32 8 0 15 -8 15 -17 0 -10 2 -29 4 -43 3 -14 5 -31 6
-39 0 -7 7 -11 15 -8 8 3 19 0 25 -7 9 -10 6 -15 -11 -20 -16 -5 -19 -9 -10
-13 8 -3 21 2 30 11 13 12 13 19 4 28 -25 25 -9 38 21 16 14 -11 15 -19 8 -45
-6 -20 -6 -33 0 -33 16 0 10 -18 -8 -23 -10 -3 -2 -5 18 -6 19 0 41 -7 48 -13
10 -11 12 -10 9 1 -2 7 3 16 9 18 9 3 13 -5 13 -24 0 -20 3 -24 9 -14 5 8 7
21 3 29 -3 9 -1 13 4 9 6 -3 16 -1 24 4 13 8 13 10 1 18 -12 8 -12 12 -2 25
15 17 36 22 26 6 -3 -5 -2 -10 4 -10 19 0 18 26 -3 49 -16 18 -17 22 -4 15 10
-5 29 -25 43 -44 l26 -35 -28 -12 c-15 -6 -32 -9 -37 -5 -5 3 -6 0 -2 -7 5 -8
19 -10 37 -6 27 6 29 5 29 -25 0 -17 -4 -29 -9 -25 -5 3 -12 1 -15 -4 -4 -5
-2 -12 4 -16 7 -4 7 -12 0 -25 -18 -34 -4 -42 24 -15 8 8 17 12 19 7 9 -13
-21 -43 -45 -45 -12 -1 -28 -8 -34 -16 -6 -8 -24 -16 -40 -18 -16 -3 -32 -10
-37 -16 -5 -7 -6 -4 -3 9 6 18 2 20 -26 18 -18 -1 -34 -3 -35 -4 -2 -2 -6 -3
-10 -5 -5 -1 -20 -7 -35 -13 -33 -13 -139 -21 -131 -10 2 5 -11 15 -31 23 -44
19 -52 19 -36 1 6 -8 18 -12 26 -9 21 8 17 -10 -6 -24 -23 -15 -83 -6 -73 11
3 6 -4 2 -16 -9 -13 -11 -35 -19 -49 -18 -26 2 -26 2 -3 -5 21 -7 22 -9 7 -21
-9 -7 -16 -21 -16 -30 0 -10 5 -7 13 9 13 26 62 59 72 48 4 -4 -8 -21 -27 -38
l-33 -32 33 26 c19 14 37 26 40 27 4 0 33 2 65 5 45 4 58 2 54 -8 -2 -7 -10
-12 -16 -10 -7 1 -11 -8 -9 -25 2 -16 -2 -28 -9 -29 -7 -1 -17 -2 -23 -3 -5 0
-10 -11 -10 -23 1 -22 1 -23 15 -4 13 17 15 17 15 4 0 -9 -5 -20 -12 -24 -8
-5 -7 -10 3 -18 13 -11 16 -18 24 -59 2 -9 7 -22 10 -27 3 -6 2 -10 -4 -10 -5
0 -13 5 -17 11 -5 8 -10 6 -16 -5 -5 -9 -13 -14 -18 -11 -5 3 -12 -6 -16 -20
-6 -26 -18 -32 -29 -15 -3 5 3 17 15 27 21 18 27 43 11 43 -5 0 -11 10 -14 23
-3 19 -5 18 -12 -10 -4 -18 -11 -33 -16 -33 -5 0 -6 -13 -2 -30 3 -20 1 -30
-6 -30 -7 0 -9 -5 -6 -10 8 -14 -16 -8 -32 7 -19 18 -16 25 9 18 17 -6 20 -4
15 10 -4 9 -7 28 -7 41 0 14 -4 23 -10 19 -5 -3 -7 -12 -3 -20 8 -22 -14 -44
-37 -38 -11 3 -20 9 -20 13 0 14 27 19 40 7 10 -9 11 -9 4 3 -5 8 -9 21 -11
29 -2 18 -33 49 -33 34 0 -7 5 -15 10 -18 17 -11 11 -35 -9 -35 -30 0 -19 -28
23 -56 21 -14 35 -31 33 -38 -7 -17 30 -49 39 -35 3 6 4 13 1 16 -9 9 17 31
30 26 7 -3 13 1 13 8 0 7 3 9 7 6 3 -4 11 -3 17 2 7 6 16 4 24 -5 10 -12 10
-14 -2 -14 -10 0 -13 -6 -10 -15 4 -8 14 -15 24 -15 12 0 20 -9 22 -22 2 -15
11 -24 26 -26 25 -4 30 13 6 22 -9 4 -14 9 -11 13 4 3 1 13 -6 22 -6 8 9 0 35
-18 50 -33 64 -50 26 -30 -20 11 -22 10 -10 -3 7 -9 29 -19 48 -23 20 -3 43
-9 52 -11 9 -3 5 3 -11 13 -17 11 -25 23 -21 33 3 8 6 39 8 69 1 33 7 57 16
65 8 6 15 17 15 25 0 16 65 53 82 47 8 -3 10 1 6 12 -5 13 -3 15 7 5 20 -18
-18 -76 -56 -84 -16 -4 -23 -7 -17 -8 7 0 16 -19 19 -42 5 -28 11 -39 20 -35
7 3 20 -1 27 -8 12 -12 16 -9 26 20 7 19 9 44 6 55 -5 16 -4 19 5 14 9 -6 11
-4 5 5 -10 16 14 31 40 24 18 -4 18 -4 2 6 -9 6 -22 8 -28 4 -6 -3 -15 0 -20
7 -14 22 -10 33 6 19 13 -11 14 -10 10 3 -4 8 -2 18 4 22 14 8 14 45 0 45 -6
0 -8 8 -5 18 5 14 4 14 -9 -2 -18 -24 -21 -21 -28 27 -4 27 -2 37 8 37 8 0 16
4 20 9 3 6 -4 8 -17 5 -13 -3 -29 -6 -35 -6 -16 -2 -17 -15 -1 -20 7 -3 9 -12
5 -22 -6 -15 -10 -16 -22 -6 -10 8 -15 9 -15 2 0 -6 -7 -9 -14 -6 -13 5 -13 2
-3 -20 7 -14 15 -26 19 -26 4 0 12 -9 18 -20 9 -16 8 -18 -5 -14 -8 3 -13 10
-10 14 7 11 -31 23 -44 15 -5 -3 -13 0 -16 6 -4 5 -13 8 -20 5 -7 -2 -32 2
-55 10 -42 15 -80 11 -80 -7 0 -5 -5 -9 -11 -9 -5 0 -8 4 -5 9 4 5 0 11 -6 14
-7 2 8 7 35 11 26 4 47 12 47 18 0 6 -3 8 -6 5 -10 -9 -44 38 -43 60 0 16 1
16 9 -2 8 -18 9 -19 9 -1 1 12 6 16 17 12 9 -4 22 -2 28 2 15 12 48 12 63 0 8
-7 9 -17 3 -34 -11 -28 -7 -30 14 -8 9 8 16 26 16 40 0 28 0 27 36 14 15 -6
30 -7 33 -2 15 20 79 49 92 41 8 -5 11 -9 7 -9 -5 0 1 -9 12 -20 12 -12 18
-26 13 -33 -4 -8 -1 -7 10 2 12 9 14 18 7 31 -5 9 -6 21 -2 25 4 5 1 5 -5 1
-19 -10 -16 19 3 38 8 9 25 14 37 12 12 -2 28 1 35 6 8 7 12 7 12 -2 0 -10 3
-10 15 0 8 7 15 19 15 27 0 8 5 11 11 7 6 -3 3 8 -6 26 -19 37 -15 46 14 30
12 -6 27 -8 33 -4 6 4 8 3 4 -4 -10 -16 13 -25 30 -12 12 11 13 7 9 -29 -3
-23 -10 -50 -17 -60 -6 -10 -8 -27 -4 -37 7 -18 8 -18 22 0 8 11 14 29 14 39
0 36 23 99 31 85 11 -18 17 -8 22 40 4 41 35 91 46 74 10 -14 40 -22 46 -12 9
14 52 12 58 -2 3 -7 6 4 6 25 1 20 -2 37 -6 38 -5 0 -21 3 -36 5 -21 4 -27 2
-21 -7 4 -7 3 -9 -4 -5 -6 3 -9 15 -7 26 2 13 -2 20 -11 20 -8 0 -14 5 -14 10
0 13 6 13 31 0 13 -8 19 -7 19 0 0 6 5 8 10 5 6 -3 10 4 10 17 0 18 2 20 10 8
7 -11 11 -8 21 15 6 17 14 49 16 73 6 42 5 43 -20 37 -18 -5 -28 -2 -36 12 -8
15 -10 12 -6 -15 2 -18 0 -30 -6 -27 -16 10 -11 65 6 65 8 0 15 5 15 10 0 6
-8 10 -18 10 -12 0 -18 -9 -20 -27 -3 -35 -12 -43 -12 -10 0 14 -4 28 -9 31
-5 4 -5 -10 0 -32 11 -48 11 -54 0 -47 -5 3 -13 0 -17 -7 -5 -8 -10 -6 -15 8
-7 18 -8 18 -8 0 -1 -12 -6 -16 -15 -13 -11 4 -13 1 -9 -11 9 -27 -44 46 -57
79 -11 26 -17 29 -57 29 -25 0 -42 -4 -38 -10 3 -5 12 -7 19 -4 27 11 61 -46
36 -61 -19 -12 -52 6 -45 23 5 14 4 15 -6 5 -25 -24 -59 -15 -75 20 l-15 32 4
-37 c1 -21 -2 -39 -8 -41 -6 -2 -5 -10 4 -20 8 -10 10 -24 6 -34 -13 -30 -14
-42 -2 -40 7 1 15 13 18 27 6 24 6 24 22 -12 11 -23 14 -48 11 -67 -8 -37 -16
-39 -37 -8 -12 16 -16 18 -16 7 -1 -9 3 -20 9 -26 6 -6 6 -15 0 -24 -8 -12
-12 -12 -18 -3 -6 10 -12 10 -28 -2 -10 -8 -26 -14 -34 -14 -9 0 -6 5 8 11 12
6 22 16 22 22 0 6 3 22 6 36 6 25 6 25 -10 5 -12 -14 -19 -16 -22 -7 -9 21
-24 2 -24 -31 0 -29 -1 -30 -15 -11 -17 23 -19 38 -3 28 7 -4 8 -3 4 4 -4 6
-13 9 -21 5 -9 -3 -15 1 -15 10 0 9 -5 19 -12 23 -6 4 -8 3 -5 -2 3 -5 -3 -10
-13 -10 -11 0 -16 6 -13 16 2 8 -2 5 -9 -7 -17 -29 -39 -17 -27 15 5 13 13 20
19 17 5 -3 10 1 10 9 0 32 -30 21 -38 -14 -2 -8 -8 -16 -13 -18 -5 -2 -9 -10
-9 -18 0 -9 -4 -13 -9 -9 -6 3 -8 14 -6 24 2 10 -3 18 -11 18 -8 0 -14 -5 -14
-10 0 -5 -8 -6 -17 -3 -13 4 -11 0 6 -14 17 -15 19 -20 8 -20 -9 0 -19 5 -22
10 -5 8 -11 7 -21 -1 -17 -14 -17 -11 -3 29 6 19 16 29 24 26 7 -3 16 -1 20 5
3 6 -1 11 -9 11 -27 0 -18 17 14 29 24 8 30 7 30 -5 0 -26 26 -14 28 14 3 39
10 70 18 85 5 8 2 8 -9 -2 -15 -12 -17 -11 -17 3 0 10 -9 16 -25 16 -19 0 -23
-4 -18 -17 4 -11 3 -14 -6 -9 -7 5 -10 2 -9 -6 2 -7 -6 -13 -17 -13 -11 0 -23
-4 -27 -10 -5 -6 -8 -3 -8 7 0 9 9 20 20 23 24 7 27 25 5 25 -19 0 -48 -26
-64 -58 -7 -12 -16 -20 -21 -17 -14 9 -5 36 19 55 23 16 21 17 -65 15 -115 -3
-114 -3 -114 -16 0 -5 4 -7 10 -4 6 3 7 -1 4 -9 -7 -19 -16 -20 -33 -3 -11 10
-13 10 -7 0 5 -8 1 -13 -11 -14 -13 0 -9 -4 11 -13 26 -12 27 -13 8 -18 -12
-3 -23 -1 -26 6 -2 6 -5 3 -5 -6 -1 -19 -16 -24 -25 -9 -4 5 0 12 6 14 10 4
10 6 0 6 -8 1 -6 8 8 23 32 35 25 45 -30 45 -30 0 -45 -4 -38 -9z m68 -5 c0
-3 -6 -11 -14 -19 -15 -14 -33 -3 -22 14 5 9 36 12 36 5z m120 -13 c-20 -13
-33 -13 -25 0 3 6 14 10 23 10 15 0 15 -2 2 -10z m66 -12 c-1 -17 -8 -24 -28
-26 -16 -2 -28 1 -28 7 0 6 10 12 23 12 19 1 19 2 3 6 -15 4 -16 7 -5 14 24
15 36 10 35 -13z m182 -18 c3 -9 -1 -11 -14 -7 -18 7 -18 6 -2 -6 16 -13 16
-15 -8 -26 -28 -12 -44 -7 -44 15 0 17 20 19 21 2 0 -7 5 0 11 15 10 28 28 32
36 7z m-118 -36 c0 -8 -5 -12 -10 -9 -6 4 -8 11 -5 16 9 14 15 11 15 -7z m438
-6 c11 -13 12 -18 12 -42 0 -9 7 -12 19 -9 12 3 17 11 14 19 -10 26 12 14 24
-13 15 -31 10 -41 -12 -23 -13 11 -14 10 -9 -5 6 -15 3 -16 -17 -10 -13 4 -24
8 -24 9 0 0 -8 16 -17 34 -10 19 -18 38 -18 43 0 13 16 11 28 -3z m-398 -8 c0
-5 -2 -10 -4 -10 -3 0 -8 5 -11 10 -3 6 -1 10 4 10 6 0 11 -4 11 -10z m-46
-16 c20 -19 20 -28 2 -21 -8 3 -17 1 -20 -6 -7 -17 -26 12 -19 30 7 17 18 17
37 -3z m734 -19 c-3 -3 -9 2 -12 12 -6 14 -5 15 5 6 7 -7 10 -15 7 -18z m-178
8 c0 -5 -5 -15 -10 -23 -8 -12 -10 -11 -10 8 0 12 5 22 10 22 6 0 10 -3 10 -7z
m66 -31 c-3 -2 1 -11 9 -19 20 -19 19 -49 0 -57 -9 -3 -15 -1 -14 7 1 6 -2 22
-6 34 -6 19 -9 20 -21 8 -21 -21 -17 -45 12 -70 l25 -22 -26 -49 c-14 -27 -31
-53 -37 -59 -7 -7 -9 -7 -6 0 3 6 0 16 -8 23 -10 9 -14 9 -14 1 0 -8 -4 -8
-15 1 -15 12 -39 5 -30 -10 3 -4 -7 -5 -22 -1 -21 6 -28 14 -29 32 0 13 -3 30
-7 36 -9 14 1 21 30 18 12 -1 24 4 27 12 3 7 1 13 -5 13 -6 0 -7 5 -4 10 4 6
16 8 28 5 20 -5 20 -5 4 5 -21 13 -13 30 14 30 14 0 19 -7 19 -24 0 -14 4 -28
10 -31 6 -4 7 5 4 24 -9 43 15 92 41 85 18 -4 18 -4 3 6 -10 6 -18 16 -18 22
0 6 9 3 20 -7 11 -10 18 -20 16 -23z m-659 -15 c8 -27 7 -34 -3 -34 -8 0 -15
4 -15 9 -1 4 -3 13 -4 18 -1 6 -3 15 -4 22 -1 9 -4 9 -13 0 -10 -10 -10 -17 0
-32 15 -25 1 -26 -28 -2 -21 17 -21 19 -5 35 28 29 60 22 72 -16z m-8 -76 c19
-19 21 -25 10 -32 -26 -17 -35 -5 -30 39 1 6 -3 12 -10 12 -7 0 -9 -9 -5 -26
6 -23 5 -24 -14 -14 -18 9 -25 28 -21 53 0 4 -3 7 -9 7 -5 0 -10 5 -10 10 0
13 59 -19 89 -49z m-199 21 c0 -13 -12 -22 -22 -16 -10 6 -1 24 13 24 5 0 9
-4 9 -8z m364 -7 c-4 -8 -7 -15 -9 -15 -2 0 -5 7 -9 15 -3 9 0 15 9 15 9 0 12
-6 9 -15z m-344 -26 c0 -5 -7 -9 -15 -9 -15 0 -20 12 -9 23 8 8 24 -1 24 -14z
m364 -10 c-3 -6 0 -15 7 -20 9 -6 10 -9 2 -9 -15 0 -26 17 -18 30 3 6 8 10 11
10 3 0 2 -5 -2 -11z m53 -31 c-3 -7 -5 -2 -5 12 0 14 2 19 5 13 2 -7 2 -19 0
-25z m-393 15 c4 -5 13 -8 19 -8 7 -1 11 -6 10 -13 -2 -6 4 -9 12 -6 8 4 15 1
15 -5 0 -8 -17 -9 -55 -5 -38 5 -55 3 -55 -5 0 -6 -8 -11 -17 -11 -13 0 -10 7
12 30 29 30 45 36 59 23z m126 -14 c0 -17 -17 -17 -27 1 -10 15 -9 17 8 13 10
-3 19 -9 19 -14z m80 -8 c16 -31 12 -33 -20 -15 -21 13 -26 20 -17 26 18 12
25 10 37 -11z m398 -15 c-1 -12 8 -38 20 -57 28 -46 28 -56 -3 -56 -28 0 -29
1 -15 28 6 11 7 19 2 19 -6 0 -12 -9 -15 -20 -6 -23 -25 -26 -33 -6 -3 8 -12
12 -20 9 -10 -4 -14 4 -14 31 0 32 4 38 30 47 17 6 30 18 30 26 0 8 5 11 11 8
5 -4 9 -17 7 -29z m-238 4 c-8 -5 -10 -10 -5 -10 13 0 -17 -20 -30 -20 -5 0
-3 5 5 10 8 5 11 10 5 10 -13 0 17 20 30 20 6 0 3 -5 -5 -10z m-45 -250 c3 -5
1 -10 -4 -10 -6 0 -11 5 -11 10 0 6 2 10 4 10 3 0 8 -4 11 -10z m80 -120 c-3
-5 -12 -10 -18 -10 -7 0 -6 4 3 10 19 12 23 12 15 0z m-95 -35 c0 -9 -6 -12
-16 -8 -13 5 -13 7 -2 14 17 11 18 11 18 -6z m-130 -40 c0 -7 10 -19 22 -27
17 -12 19 -18 10 -34 -8 -12 -11 -14 -12 -5 0 8 -3 11 -7 8 -10 -11 -34 30
-27 47 3 9 0 24 -7 34 -13 15 -12 16 4 3 9 -7 17 -19 17 -26z m60 -8 c10 3 11
2 3 -4 -8 -6 -8 -13 2 -26 13 -18 14 -18 24 0 10 17 10 17 11 1 0 -10 4 -18 9
-18 6 0 6 -12 1 -31 -5 -16 -7 -36 -4 -43 4 -10 -2 -12 -22 -8 -20 4 -25 2
-19 -8 5 -9 4 -11 -3 -6 -9 5 -9 13 -2 27 6 10 13 19 16 19 3 0 2 -4 -1 -10
-3 -5 -4 -10 -1 -10 13 0 15 20 4 32 -18 19 -58 102 -57 119 0 8 6 2 12 -12 7
-15 18 -24 27 -22z m100 -2 c-7 -9 -15 -13 -17 -11 -7 7 7 26 19 26 6 0 6 -6
-2 -15z m-100 -88 c0 -5 -4 -5 -10 -2 -5 3 -10 14 -10 23 0 15 2 15 10 2 5 -8
10 -19 10 -23z m160 13 c0 -5 -2 -10 -4 -10 -3 0 -8 5 -11 10 -3 6 -1 10 4 10
6 0 11 -4 11 -10z m40 0 c0 -5 0 -13 0 -17 0 -16 -23 -7 -26 10 -1 9 4 17 12
17 8 0 14 -4 14 -10z m-260 -17 c0 10 5 17 10 17 12 0 13 -27 2 -34 -15 -9
-52 6 -52 22 0 13 3 12 20 -3 18 -16 20 -16 20 -2z"/>
<path d="M693 3223 c-7 -3 -13 -9 -13 -14 0 -6 5 -7 11 -3 8 4 9 -1 4 -17 -6
-18 -4 -21 5 -13 15 15 9 52 -7 47z"/>
<path d="M616 3585 c4 -8 1 -15 -5 -15 -6 0 -11 -5 -11 -10 0 -6 8 -5 20 2 15
10 22 10 32 0 20 -20 38 -14 38 14 0 23 -2 25 -15 14 -12 -10 -19 -10 -27 -2
-17 17 -38 15 -32 -3z"/>
<path d="M1198 3588 c34 -17 27 -45 -10 -39 -5 0 -8 -4 -8 -10 0 -6 6 -9 13
-6 7 2 12 -4 13 -17 4 -59 9 -83 27 -108 15 -23 16 -28 3 -28 -8 0 -17 -4 -20
-9 -3 -4 6 -7 19 -5 17 1 29 -4 36 -19 7 -12 8 -19 4 -15 -4 4 -16 3 -26 -2
-12 -7 -19 -6 -21 2 -3 7 -7 5 -11 -6 -6 -15 -2 -17 23 -14 16 1 30 -2 30 -7
2 -14 43 -34 55 -28 5 4 7 2 2 -2 -4 -5 5 -21 19 -37 23 -23 25 -28 11 -33
-21 -9 -60 13 -53 30 6 17 -25 45 -50 45 -13 0 -20 -7 -20 -20 0 -15 5 -18 18
-14 13 4 21 -2 28 -21 13 -33 13 -38 0 -30 -5 3 -10 -1 -10 -11 0 -14 -2 -15
-17 -3 -14 12 -14 10 1 -13 16 -24 16 -28 3 -28 -21 0 -33 -20 -17 -30 6 -4
-3 -7 -22 -6 -18 1 -36 6 -40 11 -4 6 -8 2 -8 -7 0 -10 -5 -18 -11 -18 -6 0
-3 -7 5 -16 9 -8 16 -17 16 -19 0 -8 -35 8 -42 19 -17 24 -7 -26 12 -61 11
-21 20 -31 20 -23 0 13 1 13 10 0 13 -20 13 -33 0 -25 -14 9 -13 -8 2 -23 9
-9 7 -13 -5 -18 -9 -3 -17 -17 -17 -29 0 -13 -5 -27 -11 -31 -8 -5 -10 1 -7
19 6 32 -9 25 -23 -10 -6 -18 -6 -30 2 -39 16 -19 -1 -17 -23 3 -11 9 -18 11
-18 5 0 -7 -6 -12 -14 -12 -8 0 -16 -7 -20 -15 -6 -17 -46 -21 -46 -5 0 6 10
10 23 10 20 1 20 2 4 11 -13 8 -22 7 -33 -1 -24 -21 -17 26 8 50 12 11 18 23
15 27 -4 3 -7 1 -7 -6 0 -8 -7 -11 -15 -7 -9 3 -15 0 -15 -8 0 -20 -24 -26
-51 -12 -18 9 -23 19 -21 39 1 15 -2 27 -9 27 -6 0 -19 10 -30 23 -15 18 -18
19 -19 5 0 -9 6 -19 13 -21 7 -3 6 -6 -5 -6 -9 -1 -20 -5 -23 -11 -3 -6 1 -7
9 -4 12 5 15 0 14 -20 -1 -14 -6 -26 -10 -26 -4 0 -8 -5 -8 -12 0 -6 7 -4 18
5 23 21 32 21 32 3 0 -8 10 -16 22 -18 14 -2 29 -16 38 -36 12 -25 18 -30 28
-20 16 16 15 7 -1 -26 -8 -14 -17 -23 -20 -19 -10 10 -8 -111 1 -122 5 -6 19
-37 32 -70 13 -33 30 -68 38 -77 17 -20 59 -20 67 0 3 7 10 10 17 6 7 -4 10
-4 6 1 -4 4 0 14 8 22 16 16 64 10 64 -8 0 -6 -5 -7 -10 -4 -15 9 -24 -23 -10
-39 6 -8 40 -32 74 -53 l64 -38 -24 -30 c-38 -50 -75 -141 -77 -189 -1 -42 14
-76 35 -76 15 0 38 -27 38 -45 0 -19 25 -47 34 -38 3 3 9 -3 12 -13 8 -22 44
-64 55 -64 5 0 28 14 52 30 48 32 76 37 95 18 7 -7 12 -8 12 -2 0 6 -10 16
-22 22 -16 7 -18 11 -7 11 20 1 62 -43 52 -54 -5 -4 -3 -5 4 -1 16 9 26 -10
19 -38 -4 -15 -26 -34 -65 -55 -69 -37 -125 -43 -144 -17 -13 18 -101 31 -91
14 3 -4 12 -8 20 -8 8 0 14 -7 14 -15 0 -8 8 -23 18 -33 10 -10 16 -24 14 -30
-6 -19 22 -73 35 -67 12 4 33 -23 33 -44 0 -5 -10 -11 -22 -13 -22 -4 -22 -5
5 -18 23 -11 41 -12 99 -2 39 7 72 11 74 9 2 -2 -1 -19 -6 -38 -6 -18 -10 -57
-10 -85 0 -56 -17 -80 -54 -77 -15 1 -16 0 -4 -3 16 -5 15 -9 -8 -39 -14 -19
-23 -39 -20 -44 4 -5 2 -12 -3 -16 -6 -3 -3 -23 7 -51 16 -44 16 -46 -7 -87
-12 -23 -44 -81 -69 -129 -25 -48 -49 -83 -53 -77 -4 7 -9 5 -12 -6 -4 -9 -3
-13 3 -10 6 3 10 2 10 -4 0 -11 -20 -26 -35 -26 -5 0 -10 -7 -11 -15 -3 -41
-6 -50 -25 -71 l-20 -24 11 25 c10 23 10 24 -4 6 -9 -10 -13 -23 -10 -27 3 -5
-3 -20 -12 -33 -17 -27 -17 -22 23 -335 11 -91 14 -170 11 -293 l-6 -168 119
0 119 0 0 298 c0 269 7 396 26 498 l7 36 -34 -18 c-19 -9 -61 -35 -93 -56 -66
-44 -66 -44 -93 31 -12 31 -10 41 29 130 23 53 61 130 84 171 22 41 44 85 48
98 4 12 13 22 21 22 21 0 55 50 55 81 0 30 15 47 24 27 3 -7 3 -2 0 11 -4 16
-3 21 5 17 7 -5 11 6 11 32 0 23 6 45 15 52 19 16 19 36 0 44 -8 3 -15 14 -15
25 0 11 -6 21 -12 24 -7 2 -10 8 -6 12 4 4 15 2 24 -6 14 -11 18 -11 30 6 10
14 17 16 25 8 9 -9 16 -9 29 0 14 8 22 8 34 -2 14 -12 19 -11 34 3 21 19 32
20 32 5 0 -6 7 -18 16 -26 8 -9 13 -25 10 -36 -3 -13 1 -21 14 -24 10 -3 21
-16 24 -29 4 -14 11 -22 16 -19 13 8 13 -1 0 -25 -7 -13 -4 -35 12 -79 12 -33
19 -63 17 -66 -3 -3 -25 2 -50 10 -47 16 -106 8 -101 -14 1 -6 -12 -11 -32
-11 -40 0 -59 -19 -54 -56 4 -34 27 -49 62 -40 21 5 26 11 21 25 -9 28 43 53
69 32 6 -4 28 -14 49 -21 l37 -12 -17 -31 c-10 -17 -24 -38 -30 -45 -7 -7 -13
-18 -13 -23 0 -17 37 9 61 42 24 34 49 27 30 -9 -6 -11 -11 -25 -11 -31 0 -22
18 -10 34 22 8 17 16 25 16 17 1 -8 10 2 21 23 22 43 30 44 84 17 41 -21 65
-14 65 18 0 12 -3 13 -11 5 -6 -6 -17 -10 -23 -8 -6 2 -23 6 -38 9 -26 6 -28
10 -28 52 0 46 -21 97 -70 169 -15 22 -30 49 -34 60 -9 32 40 29 90 -6 24 -16
45 -29 49 -29 29 0 118 -103 114 -132 -1 -7 -1 -33 1 -58 1 -35 3 -41 10 -25
5 11 9 39 9 63 1 42 21 61 21 20 0 -17 3 -19 9 -9 6 9 13 1 24 -30 9 -24 17
-53 19 -64 2 -11 8 -20 15 -20 6 0 15 -3 19 -7 12 -12 24 -9 24 6 0 7 7 19 15
26 9 8 15 30 15 58 l0 46 31 -30 c73 -68 114 -150 139 -275 10 -52 13 -57 45
-67 19 -5 33 -6 29 -1 -3 5 9 9 26 9 24 0 31 4 27 15 -4 8 -1 17 5 21 7 4 8 3
4 -4 -4 -7 -2 -12 5 -12 7 0 5 -8 -6 -20 -10 -12 -25 -18 -32 -15 -8 2 -11 1
-8 -4 10 -18 -38 -24 -50 -7 -7 8 -15 13 -18 9 -4 -3 -2 -13 5 -20 9 -11 9
-16 -1 -22 -12 -8 -6 -61 7 -61 3 0 25 11 49 25 23 14 43 22 43 18 -1 -9 -67
-53 -81 -53 -5 0 -9 -14 -9 -31 0 -38 2 -38 113 35 46 31 90 56 98 56 18 -1
-32 -43 -91 -78 -76 -44 -110 -75 -110 -99 0 -29 5 -29 49 5 97 76 192 135
202 125 6 -6 -2 -18 -24 -34 -19 -13 -76 -55 -127 -93 -87 -65 -91 -70 -86
-100 12 -72 56 -500 56 -558 0 -16 33 -17 470 -18 l470 0 0 297 c0 170 -4 292
-9 284 -6 -9 -11 -10 -15 -2 -4 6 -4 16 -1 21 4 6 3 10 -2 9 -22 -4 -33 3 -33
20 0 10 -7 21 -15 25 -8 3 -12 12 -9 21 4 10 0 15 -11 15 -9 0 -14 4 -11 8 2
4 -4 14 -16 21 -19 12 -20 11 -13 -20 6 -25 4 -30 -6 -25 -9 5 -8 2 1 -6 9 -7
15 -22 15 -33 0 -11 3 -30 7 -42 6 -17 4 -23 -8 -23 -8 0 -17 7 -21 16 -3 9
-16 27 -28 40 -17 19 -29 22 -63 19 -33 -3 -44 0 -52 15 -14 26 -13 30 6 23
13 -5 15 -1 10 18 l-6 24 11 -22 c12 -22 29 -31 29 -15 0 35 -24 80 -52 97
-48 28 -52 29 -45 12 4 -11 2 -14 -8 -10 -8 3 -13 8 -10 12 2 5 -9 18 -25 30
-17 12 -30 30 -30 41 0 23 -4 24 -31 10 -27 -15 -26 11 1 28 27 17 15 35 -19
28 -26 -6 -26 -6 -5 10 27 19 21 58 -7 49 -11 -4 -19 -2 -19 3 0 12 32 12 48
-1 8 -6 12 -6 12 2 0 7 5 9 10 6 6 -4 8 -10 5 -15 -6 -10 23 -35 32 -26 4 4 3
10 -2 14 -15 11 -37 53 -31 59 3 3 12 0 21 -7 10 -8 15 -9 15 -2 0 7 -15 15
-32 20 l-33 9 37 8 c20 4 46 4 58 0 29 -9 17 13 -14 25 -16 7 -17 9 -4 9 9 1
20 -3 23 -9 11 -17 25 -11 18 8 -6 14 -4 15 8 5 19 -15 35 -4 36 26 1 13 6 28
11 33 12 12 42 -1 42 -19 0 -12 3 -13 15 -3 8 6 19 9 25 5 5 -3 10 -1 10 6 0
7 10 2 22 -11 23 -25 31 -79 13 -92 -18 -13 6 -22 25 -10 11 7 33 12 49 12 16
0 31 6 35 15 3 8 10 15 15 15 6 0 8 -7 5 -15 -4 -8 -1 -15 4 -15 6 0 10 13 10
30 -1 24 -4 28 -15 19 -11 -9 -12 -8 -7 5 3 9 1 16 -5 16 -6 0 -11 -4 -11 -10
0 -20 -16 -9 -17 11 -3 31 -21 47 -29 26 -3 -9 -12 -17 -20 -17 -26 0 -14 15
31 36 39 19 43 20 35 4 -9 -18 -4 -30 12 -30 5 0 8 12 6 28 -2 16 -9 27 -18
27 -8 0 -18 5 -22 10 -5 6 -8 4 -8 -5 0 -13 -1 -13 -11 0 -8 12 -9 10 -4 -7 5
-20 3 -23 -19 -21 -14 1 -26 8 -26 15 0 7 -5 13 -11 13 -5 0 -7 -4 -4 -10 3
-6 -1 -7 -10 -4 -9 4 -14 13 -11 20 5 13 0 16 -20 13 -10 -1 -24 24 -24 44 0
9 5 17 10 17 6 0 10 -7 10 -15 0 -8 5 -15 10 -15 6 0 10 10 10 23 0 19 -5 22
-42 22 -32 0 -45 -5 -50 -18 -10 -25 -31 -10 -26 18 5 24 5 24 -72 26 -27 1
-50 3 -50 4 0 1 7 15 14 31 16 30 11 53 -7 35 -15 -15 -54 -14 -60 2 -4 9 -8
9 -15 -2 -7 -9 -19 -11 -36 -7 -30 7 -35 26 -7 26 10 0 23 6 29 13 15 18 64
20 87 3 13 -9 28 -11 46 -6 16 5 31 4 37 -2 15 -15 104 -19 95 -4 -4 6 1 5 10
-3 14 -11 20 -11 32 -1 9 7 18 10 22 7 3 -4 -2 -9 -11 -13 -12 -4 -15 -13 -10
-28 6 -20 6 -20 -13 -4 -25 23 -33 23 -33 -1 0 -20 25 -31 73 -31 23 0 27 3
22 19 -4 12 0 21 11 25 13 5 14 3 6 -7 -19 -22 3 -39 59 -43 l54 -3 2 284 c1
275 1 285 -18 285 -10 0 -19 5 -19 10 0 6 7 10 15 10 17 0 20 26 4 35 -18 12
-64 13 -76 3 -9 -7 -13 -7 -13 0 0 20 27 31 63 26 37 -4 37 -4 38 33 0 21 1
63 2 94 l2 56 -21 -41 c-12 -22 -32 -59 -45 -82 -13 -23 -52 -90 -87 -150 -35
-60 -67 -116 -72 -124 -5 -8 -27 -49 -51 -90 -23 -41 -50 -89 -59 -106 -10
-17 -24 -42 -32 -55 -15 -27 -34 -49 -42 -49 -6 0 5 32 13 40 24 21 61 106 56
129 -2 14 1 18 11 14 8 -3 17 3 21 13 4 11 24 46 45 78 21 33 38 63 38 67 0 5
14 32 31 60 26 42 29 53 18 61 -12 8 -12 9 1 5 8 -2 19 4 25 14 5 9 25 44 44
76 18 32 44 79 57 105 13 25 28 49 34 53 5 3 10 37 10 76 0 55 -3 69 -15 69
-22 0 -19 36 5 60 33 33 25 46 -24 40 -11 -1 -15 3 -12 9 4 6 1 11 -6 11 -8 0
-6 5 5 11 9 6 15 15 11 20 -3 6 4 18 15 28 17 15 22 35 28 96 l6 78 -24 -6
c-44 -13 -160 -29 -166 -24 -6 7 65 27 95 27 12 0 31 9 42 20 22 22 36 25 42
10 2 -5 4 74 6 177 2 144 0 188 -10 195 -10 6 -10 10 -1 16 13 9 17 242 3 242
-5 0 -10 -6 -12 -12 -3 -7 -5 2 -5 20 0 32 12 43 19 20 3 -7 5 7 6 31 1 24 -4
51 -11 59 -9 13 -9 14 1 8 7 -4 12 -2 12 6 0 8 -11 15 -25 16 -14 1 -25 -3
-25 -8 0 -6 -4 -10 -10 -10 -5 0 -6 7 -3 17 4 11 3 14 -5 9 -7 -4 -12 -2 -12
4 0 14 -25 8 -26 -6 -2 -26 -17 -64 -26 -64 -5 0 -6 4 -3 10 3 6 -1 7 -9 4
-20 -8 -21 22 -1 56 20 35 18 50 -5 50 -20 0 -20 0 -1 19 10 10 25 21 32 24 8
3 -45 5 -117 6 -125 0 -132 -1 -143 -22 -6 -12 -13 -36 -15 -54 -3 -18 -9 -40
-16 -50 -9 -15 -10 -12 -4 16 5 25 3 32 -6 26 -7 -4 0 13 15 39 l27 46 -109 0
c-71 0 -113 -4 -121 -12 -9 -9 -12 -9 -12 0 0 7 -5 12 -11 12 -5 0 -7 -5 -3
-12 5 -8 2 -9 -12 -3 -32 15 -273 18 -290 5 -10 -9 -14 -9 -14 -1 0 8 -26 11
-85 10 -63 -1 -85 -5 -85 -15 0 -7 -5 -16 -12 -20 -7 -5 -9 -1 -6 13 5 20 2
21 -273 22 -257 1 -279 0 -279 -16 0 -13 -3 -14 -12 -5 -8 8 -17 8 -30 1 -13
-7 -18 -7 -16 2 2 6 -2 13 -9 16 -7 3 -9 -3 -6 -17 5 -20 4 -21 -16 -9 -11 8
-21 17 -21 21 0 4 -45 7 -100 7 -64 0 -100 -4 -100 -11 0 -5 7 -8 15 -5 8 4
17 2 20 -3 4 -6 1 -10 -5 -10 -7 0 -9 -9 -5 -22 6 -22 5 -22 -16 2 l-22 25 8
-25 c4 -14 4 -22 0 -17 -5 4 -17 0 -27 -10 -20 -18 -23 -11 -8 18 13 24 7 24
-16 2 -17 -17 -18 -17 -11 -1 3 10 2 28 -3 40 l-9 23 0 -22 c-1 -32 -19 -38
-32 -11 -8 18 -19 24 -45 25 l-34 1 23 -18 22 -19 -23 -8 c-13 -5 -40 -7 -60
-4 -29 4 -32 6 -12 9 47 6 54 11 40 27 -10 12 -36 15 -119 14 -84 0 -101 -3
-83 -11z m1102 -8 c0 -5 -4 -10 -10 -10 -5 0 -10 5 -10 10 0 6 5 10 10 10 6 0
10 -4 10 -10z m400 0 c0 -5 -4 -10 -9 -10 -6 0 -13 5 -16 10 -3 6 1 10 9 10 9
0 16 -4 16 -10z m654 1 c3 -5 -1 -11 -9 -14 -9 -4 -12 -1 -8 9 6 16 10 17 17
5z m-1048 -29 c-17 -16 -18 -16 -5 5 7 12 15 20 18 17 3 -2 -3 -12 -13 -22z
m1021 -9 c-11 -10 -26 8 -20 23 5 15 7 14 15 -1 6 -9 7 -19 5 -22z m63 16 c0
-6 -4 -7 -10 -4 -5 3 -10 11 -10 16 0 6 5 7 10 4 6 -3 10 -11 10 -16z m-1588
-21 c-7 -7 -12 -8 -12 -2 0 14 12 26 19 19 2 -3 -1 -11 -7 -17z m1454 6 c-3
-9 -6 -22 -6 -30 0 -8 -4 -14 -8 -14 -5 0 -7 14 -4 30 2 17 9 30 14 30 6 0 7
-7 4 -16z m31 -6 c-3 -8 -6 -5 -6 6 -1 11 2 17 5 13 3 -3 4 -12 1 -19z m-833
3 c3 -5 -3 -11 -15 -14 -16 -4 -18 -3 -8 9 13 16 16 17 23 5z m911 -1 c3 -5
-1 -10 -9 -10 -9 0 -16 5 -16 10 0 6 4 10 9 10 6 0 13 -4 16 -10z m-683 -17
c4 -13 -2 -18 -19 -19 -26 -2 -29 6 -11 24 17 17 25 15 30 -5z m285 -15 c-3
-7 -5 -2 -5 12 0 14 2 19 5 13 2 -7 2 -19 0 -25z m-1437 -3 c-7 -9 -15 -13
-17 -11 -7 7 7 26 19 26 6 0 6 -6 -2 -15z m108 -2 c-2 -13 3 -17 16 -15 11 2
15 -1 11 -7 -3 -6 -15 -11 -26 -11 -14 0 -19 7 -19 25 0 14 5 25 10 25 6 0 10
-8 8 -17z m982 7 c0 -11 -48 -25 -57 -16 -4 3 1 6 10 6 10 0 17 5 17 10 0 6 7
10 15 10 8 0 15 -4 15 -10z m280 -22 c0 -12 -13 -9 -32 6 -26 19 -22 26 7 13
14 -7 25 -15 25 -19z m-892 -53 c2 -48 0 -65 -9 -60 -8 5 -9 -1 -5 -21 9 -42
-5 -59 -30 -37 -10 10 -31 24 -46 32 -16 8 -26 17 -23 19 3 3 -3 11 -13 18
-15 13 -15 14 8 11 14 -1 28 -6 32 -12 4 -5 10 -6 14 -3 3 4 -3 19 -15 34 -25
32 -20 46 6 17 10 -10 14 -12 8 -4 -8 11 -6 13 5 9 8 -2 15 -13 15 -24 0 -12
7 -19 19 -19 18 0 20 6 17 59 -1 32 1 56 6 53 5 -3 10 -36 11 -72z m1363 35
c6 0 7 -5 4 -10 -4 -6 -1 -18 6 -26 10 -12 10 -15 -2 -12 -18 4 -28 25 -27 58
0 16 2 19 5 8 2 -10 9 -18 14 -18z m-2017 -12 c-4 -6 -10 -5 -15 3 -14 22 -10
33 6 19 8 -7 12 -17 9 -22z m586 12 c0 -5 -2 -10 -4 -10 -3 0 -8 5 -11 10 -3
6 -1 10 4 10 6 0 11 -4 11 -10z m1230 -10 c0 -5 -2 -10 -4 -10 -3 0 -8 5 -11
10 -3 6 -1 10 4 10 6 0 11 -4 11 -10z m-1054 -27 c-10 -10 -19 5 -10 18 6 11
8 11 12 0 2 -7 1 -15 -2 -18z m800 5 c12 -13 13 -18 4 -13 -9 5 -8 0 4 -13 16
-19 17 -22 3 -22 -9 0 -19 5 -22 10 -4 6 -10 8 -15 5 -4 -3 -7 3 -5 12 2 10 4
24 4 31 1 17 5 15 27 -10z m-875 -20 c0 -28 2 -30 9 -13 8 20 9 20 9 -1 1 -11
-6 -29 -14 -40 -13 -18 -14 -18 -8 5 3 13 2 22 -3 19 -5 -4 -10 9 -11 28 -2
19 2 34 7 34 6 0 10 -15 11 -32z m-188 -21 c-9 -16 -24 9 -17 28 7 18 8 18 14
-1 4 -10 5 -23 3 -27z m477 38 c0 -2 -9 -9 -20 -15 -12 -6 -20 -7 -20 -1 0 5
8 12 18 14 9 3 18 5 20 6 1 0 2 -1 2 -4z m1244 -11 c3 -8 2 -12 -4 -9 -6 3
-10 10 -10 16 0 14 7 11 14 -7z m-2197 0 c-3 -3 -12 -4 -19 -1 -8 3 -5 6 6 6
11 1 17 -2 13 -5z m1423 -10 c0 -8 -5 -12 -10 -9 -6 4 -8 11 -5 16 9 14 15 11
15 -7z m-690 -9 c0 -8 -2 -15 -4 -15 -2 0 -6 7 -10 15 -3 8 -1 15 4 15 6 0 10
-7 10 -15z m156 3 c4 -7 3 -8 -4 -4 -7 4 -12 3 -12 -2 0 -10 -70 -45 -78 -38
-2 3 7 11 22 17 14 7 26 16 26 20 0 4 8 10 18 12 9 3 18 5 19 6 1 0 5 -4 9
-11z m298 -4 c9 -22 -3 -32 -14 -14 -12 19 -12 30 -1 30 5 0 12 -7 15 -16z
m876 2 c0 -3 -4 -8 -10 -11 -5 -3 -10 -1 -10 4 0 6 5 11 10 11 6 0 10 -2 10
-4z m120 -21 c0 -2 -8 -1 -17 2 -13 5 -15 2 -10 -11 4 -10 3 -15 -3 -11 -6 3
-10 15 -10 26 0 17 3 18 20 9 11 -6 20 -13 20 -15z m-2071 -22 c-4 -40 3 -46
16 -15 16 36 35 43 35 12 0 -11 -6 -19 -12 -17 -14 2 -16 -25 -4 -62 6 -16 5
-21 -3 -17 -6 4 -15 -4 -21 -18 -5 -14 -14 -26 -20 -26 -12 0 -12 2 0 36 7 18
7 29 1 33 -5 4 -11 18 -13 33 -2 15 -7 30 -11 34 -13 13 -7 24 14 24 13 0 20
-6 18 -17z m1417 -19 c-4 -12 -10 -14 -17 -7 -5 5 -7 17 -3 27 4 12 10 14 17
7 5 -5 7 -17 3 -27z m596 19 c11 -12 13 -25 8 -38 -5 -11 -9 -16 -9 -12 -1 5
-6 5 -12 1 -8 -4 -7 -9 2 -15 10 -6 10 -9 2 -9 -8 0 -11 -11 -9 -27 2 -16 1
-22 -1 -15 -3 7 -8 10 -13 7 -5 -3 -11 -1 -15 5 -3 5 -1 10 6 10 8 0 10 11 6
35 -5 29 -2 35 16 41 20 6 20 7 2 20 -10 8 -14 14 -8 14 5 0 17 -8 25 -17z
m-508 0 c-5 -5 -12 -12 -16 -18 -4 -6 -8 -2 -8 8 0 9 7 17 17 17 9 0 12 -3 7
-7z m-971 -18 c4 -8 2 -17 -3 -20 -6 -4 -10 3 -10 14 0 25 6 27 13 6z m119
-23 c-18 -6 -15 -20 6 -25 13 -4 12 -5 -5 -6 -12 0 -24 -7 -26 -13 -3 -8 -6
-6 -6 5 -1 9 -5 17 -11 17 -15 0 0 29 18 33 20 4 41 -5 24 -11z m278 -2 c0 -5
-7 -7 -15 -4 -8 4 -12 10 -9 15 6 11 24 2 24 -11z m1108 -14 c-3 -15 0 -27 8
-30 8 -3 14 1 14 10 0 8 5 12 10 9 23 -14 9 -31 -25 -31 -39 1 -40 4 -23 41
14 32 22 32 16 1z m32 14 c0 -5 -4 -10 -10 -10 -5 0 -10 5 -10 10 0 6 5 10 10
10 6 0 10 -4 10 -10z m-1770 -4 c0 -11 -19 -15 -25 -6 -3 5 1 10 9 10 9 0 16
-2 16 -4z m260 -11 c0 -8 -4 -15 -8 -15 -5 0 -9 7 -9 15 0 8 4 15 9 15 4 0 8
-7 8 -15z m525 5 c3 -5 1 -10 -4 -10 -6 0 -11 5 -11 10 0 6 2 10 4 10 3 0 8
-4 11 -10z m235 0 c0 -5 -7 -10 -16 -10 -8 0 -12 5 -9 10 3 6 10 10 16 10 5 0
9 -4 9 -10z m508 -21 c-3 -8 -7 -3 -11 10 -4 17 -3 21 5 13 5 -5 8 -16 6 -23z
m39 -19 c-6 -58 -19 -63 -16 -7 2 26 7 47 12 47 5 0 7 -18 4 -40z m-1597 16
c0 -8 6 -16 13 -19 6 -2 9 -7 5 -11 -7 -8 -48 23 -48 36 0 5 7 8 15 8 8 0 15
-6 15 -14z m-402 -21 c-3 -3 -9 2 -12 12 -6 14 -5 15 5 6 7 -7 10 -15 7 -18z
m577 -3 c-27 -9 -52 -19 -55 -22 -3 -3 -30 -6 -60 -7 l-55 -2 45 9 c25 5 68
15 95 23 69 20 92 19 30 -1z m835 -26 c0 -15 -7 -21 -25 -22 -20 -2 -25 3 -25
23 0 15 4 22 11 18 6 -4 8 -14 5 -22 -4 -8 -2 -11 5 -7 6 3 9 17 6 30 -3 20
-2 22 9 13 8 -6 14 -21 14 -33z m-671 -6 c0 -10 -3 -8 -9 5 -12 27 -12 43 0
25 5 -8 9 -22 9 -30z m762 14 c12 -14 14 -14 20 3 5 12 8 14 8 3 0 -8 -4 -22
-9 -30 -8 -13 -12 -11 -30 7 -11 12 -20 25 -20 28 0 11 18 4 31 -11z m126 -6
c-3 -8 -6 -5 -6 6 -1 11 2 17 5 13 3 -3 4 -12 1 -19z m223 1 c0 -13 -13 -11
-35 5 -18 13 -18 14 8 9 15 -3 27 -9 27 -14z m102 -21 c-6 -6 -12 -5 -17 3 -5
8 -4 10 3 5 8 -5 12 1 13 16 1 18 2 19 6 4 3 -10 0 -23 -5 -28z m-660 -24 c-8
-14 -10 -14 -15 5 -3 11 -1 21 4 21 5 0 10 8 10 18 1 11 3 10 6 -5 2 -12 0
-30 -5 -39z m-1067 36 c3 -5 1 -10 -4 -10 -6 0 -11 5 -11 10 0 6 2 10 4 10 3
0 8 -4 11 -10z m495 0 c0 -5 -4 -10 -10 -10 -5 0 -10 5 -10 10 0 6 5 10 10 10
6 0 10 -4 10 -10z m720 -5 c-9 -11 -9 -15 -1 -15 7 0 9 -4 6 -10 -10 -16 -25
-11 -25 8 0 21 8 32 23 32 5 0 4 -7 -3 -15z m774 0 c19 -15 19 -15 -2 -15 -23
0 -30 -14 -12 -25 6 -3 10 -12 10 -18 0 -7 -9 1 -19 17 l-19 29 -4 -34 c-2
-27 -7 -33 -22 -31 -12 2 -16 -1 -11 -9 5 -7 3 -10 -6 -7 -15 6 -13 41 3 47 6
2 4 7 -3 12 -11 7 -11 9 -1 9 7 0 22 9 34 20 26 24 27 24 52 5z m-1649 -6 c11
-16 1 -19 -13 -3 -7 8 -8 14 -3 14 5 0 13 -5 16 -11z m1212 -3 c-3 -6 0 -19 5
-28 6 -14 5 -18 -7 -18 -12 0 -14 -7 -9 -27 l5 -28 -20 23 c-17 20 -19 28 -9
45 6 12 11 23 10 25 -7 9 0 19 13 19 9 0 14 -5 12 -11z m120 -6 c4 -13 3 -13
-6 0 -10 13 -12 13 -21 0 -8 -13 -10 -12 -10 3 0 22 31 19 37 -3z m-1729 -2
c16 -16 15 -63 -3 -97 -8 -16 -11 -31 -8 -35 17 -17 33 -88 33 -148 0 -62 -12
-95 -23 -66 -4 10 -8 9 -17 -2 -9 -11 -13 -12 -17 -2 -7 17 -23 15 -23 -3 0
-8 16 -19 40 -25 39 -11 40 -12 40 -55 0 -33 4 -45 15 -45 13 0 17 -10 14 -37
0 -5 -6 -7 -14 -5 -18 3 -14 -31 5 -40 12 -5 12 -7 -2 -7 -22 -1 -24 -31 -2
-31 8 0 13 4 10 9 -3 5 0 11 8 14 21 8 57 -4 49 -16 -4 -6 2 -8 15 -5 12 4 22
2 22 -2 0 -4 9 -6 20 -3 11 3 20 0 20 -6 0 -6 -5 -11 -11 -11 -8 0 -8 -5 1
-15 7 -8 16 -12 21 -9 5 3 9 -4 9 -15 0 -27 -40 -30 -41 -3 0 10 -3 12 -6 5
-7 -20 -19 -15 -19 7 0 11 5 20 11 21 5 0 0 4 -12 9 -12 5 -34 5 -50 0 l-28
-8 35 -2 c29 -1 32 -3 15 -10 -32 -14 -65 -12 -65 4 0 8 -4 17 -8 20 -4 3 -8
-12 -8 -32 1 -30 -3 -38 -24 -45 -21 -8 -52 4 -185 69 -88 43 -163 83 -167 89
-19 25 -7 106 27 187 l36 85 62 -2 c70 -2 91 3 93 25 1 8 5 24 10 34 5 14 4
17 -4 12 -8 -4 -12 0 -12 11 0 14 -2 15 -9 5 -7 -12 -12 -12 -30 -1 -22 15
-28 29 -10 29 5 0 7 5 4 10 -7 11 17 40 32 40 5 0 15 9 23 20 16 22 46 27 52
8 3 -8 11 -7 28 5 22 15 22 17 4 23 -30 12 -35 28 -11 41 28 16 40 16 55 1z
m185 -8 c9 -11 23 -20 31 -20 8 0 17 -4 21 -10 3 -5 -11 -3 -32 4 -21 8 -37
19 -35 26 2 8 -3 10 -13 6 -9 -3 -13 -2 -10 4 9 15 19 12 38 -10z m1202 10
c-3 -5 -2 -10 3 -10 12 0 0 -72 -13 -77 -8 -2 -12 63 -6 95 1 1 6 2 12 2 5 0
7 -4 4 -10z m488 3 c-7 -2 -21 -2 -30 0 -10 3 -4 5 12 5 17 0 24 -2 18 -5z
m-108 -14 c11 -16 1 -19 -13 -3 -7 8 -8 14 -3 14 5 0 13 -5 16 -11z m-678 -21
c-3 -8 -6 -5 -6 6 -1 11 2 17 5 13 3 -3 4 -12 1 -19z m133 13 c0 -5 -7 -11
-15 -15 -8 -3 -12 -11 -10 -18 4 -10 -6 -13 -34 -13 -37 0 -38 0 -17 14 11 9
27 21 34 28 15 15 42 17 42 4z m211 -5 c11 7 12 -17 0 -35 -7 -11 -11 -9 -20
8 -7 12 -9 27 -5 33 6 9 9 9 12 0 2 -7 8 -10 13 -6z m439 4 c0 -13 -28 -25
-38 -16 -3 4 0 11 8 16 20 13 30 12 30 0z m-160 -20 c0 -5 -5 -10 -11 -10 -5
0 -7 5 -4 10 3 6 8 10 11 10 2 0 4 -4 4 -10z m-1638 -17 c-6 -2 -9 -10 -6 -15
4 -7 2 -8 -5 -4 -13 9 -5 26 12 25 9 0 8 -2 -1 -6z m281 -5 c-2 -5 -2 -8 1 -8
2 0 11 -3 20 -6 11 -4 16 -1 16 10 0 9 5 16 10 16 7 0 7 -6 0 -20 -13 -23 -9
-23 -65 -9 -50 13 -53 24 -7 24 17 0 28 -3 25 -7z m743 -3 c16 -16 7 -19 -20
-9 -9 3 -13 10 -10 15 7 12 13 11 30 -6z m529 5 c3 -5 1 -10 -4 -10 -6 0 -11
5 -11 10 0 6 2 10 4 10 3 0 8 -4 11 -10z m-311 -41 c-3 -5 -1 -9 3 -9 5 0 7
-16 5 -36 -3 -26 -1 -35 7 -30 7 5 11 -1 11 -13 0 -12 -4 -21 -10 -21 -5 0
-10 -15 -10 -34 0 -19 5 -38 10 -41 6 -3 10 -13 10 -21 0 -8 -4 -12 -10 -9 -5
3 -10 -1 -10 -9 0 -9 -4 -16 -10 -16 -5 0 -10 8 -10 17 0 15 -2 14 -14 -3 -11
-14 -11 -21 -3 -26 9 -6 9 -8 0 -8 -6 0 -11 -9 -10 -20 2 -24 15 -26 23 -5 9
23 21 18 31 -12 7 -23 5 -32 -13 -51 -19 -20 -22 -21 -20 -5 2 10 -4 21 -12
24 -19 7 -72 -18 -72 -33 0 -6 -8 -4 -18 5 -25 23 -35 21 -22 -3 9 -16 8 -18
-5 -14 -19 8 -19 28 0 44 9 7 14 18 12 24 -5 15 40 49 54 41 6 -4 8 -18 5 -31
-5 -18 -3 -22 8 -18 11 4 13 15 9 37 -3 18 -9 34 -13 37 -3 3 -9 13 -13 22 -4
12 -2 15 9 11 16 -6 20 22 4 32 -18 11 1 31 30 29 18 -1 31 4 34 13 8 19 -2
35 -16 27 -7 -4 -7 0 0 12 16 31 3 94 -22 104 -21 9 -21 9 2 9 12 1 22 7 22
14 1 7 7 4 15 -7 8 -10 12 -23 9 -27z m251 21 c9 0 13 -10 12 -29 -2 -24 -5
-27 -16 -18 -8 7 -12 7 -9 2 4 -6 3 -17 -2 -25 -7 -12 -10 -12 -16 3 -3 9 -10
14 -15 11 -13 -7 -11 1 7 44 9 20 18 31 21 25 3 -7 11 -13 18 -13z m-958 -12
c-3 -8 -6 -5 -6 6 -1 11 2 17 5 13 3 -3 4 -12 1 -19z m-339 -6 c6 -18 -15 -14
-22 4 -4 10 -1 14 6 12 6 -2 14 -10 16 -16z m1080 0 c6 -18 -15 -14 -22 4 -4
10 -1 14 6 12 6 -2 14 -10 16 -16z m155 -44 c-6 -44 -20 -50 -29 -13 -3 14 -9
25 -13 25 -3 0 -12 9 -19 20 -12 19 -11 20 10 8 13 -7 26 -17 30 -23 4 -5 8 4
8 20 0 21 3 26 9 15 5 -8 6 -32 4 -52z m265 37 c-3 -3 -9 2 -12 12 -6 14 -5
15 5 6 7 -7 10 -15 7 -18z m37 7 c-3 -3 -11 0 -18 7 -9 10 -8 11 6 5 10 -3 15
-9 12 -12z m-900 -44 c-6 -53 -15 -79 -15 -40 0 11 -4 22 -8 24 -9 3 13 68 23
68 3 0 2 -23 0 -52z m125 42 c0 -5 -5 -10 -11 -10 -5 0 -7 5 -4 10 3 6 8 10
11 10 2 0 4 -4 4 -10z m43 2 c-13 -8 -2 -35 13 -32 5 1 10 -3 12 -9 6 -19 -24
-12 -44 10 -16 17 -16 22 -4 29 8 6 20 10 25 10 6 0 5 -4 -2 -8z m580 -47 c6
-39 6 -39 -8 -15 -8 14 -14 36 -15 50 0 36 16 11 23 -35z m-1063 41 c0 -3 -4
-8 -10 -11 -5 -3 -10 -1 -10 4 0 6 5 11 10 11 6 0 10 -2 10 -4z m70 -6 c0 -5
-7 -7 -15 -4 -8 4 -15 8 -15 10 0 2 7 4 15 4 8 0 15 -4 15 -10z m517 4 c-3 -3
-12 -4 -19 -1 -8 3 -5 6 6 6 11 1 17 -2 13 -5z m823 -20 c0 -8 -4 -12 -10 -9
-5 3 -10 13 -10 21 0 8 5 12 10 9 6 -3 10 -13 10 -21z m-1610 -16 c0 -16 -3
-19 -11 -11 -6 6 -8 16 -5 22 11 17 16 13 16 -11z m210 12 c0 -5 -5 -10 -11
-10 -5 0 -7 5 -4 10 3 6 8 10 11 10 2 0 4 -4 4 -10z m75 -15 c25 -21 28 -26
15 -37 -8 -7 -12 -9 -8 -4 12 14 -35 46 -50 34 -16 -14 -26 -4 -19 17 9 21 27
18 62 -10z m508 10 c-3 -9 -8 -14 -10 -11 -3 3 -2 9 2 15 9 16 15 13 8 -4z
m197 0 c0 -8 -4 -15 -10 -15 -5 0 -10 7 -10 15 0 8 5 15 10 15 6 0 10 -7 10
-15z m559 -11 c3 2 5 -14 3 -37 -2 -28 0 -38 6 -28 6 9 12 10 16 3 4 -6 14 -8
23 -5 27 11 9 -21 -20 -35 -15 -7 -27 -18 -27 -23 0 -12 32 -8 42 6 5 6 8 5 8
-3 0 -7 -11 -18 -25 -24 -32 -15 -32 -28 1 -28 21 0 24 -3 15 -13 -6 -8 -7
-18 -3 -23 4 -4 -1 -2 -10 5 -9 7 -22 10 -28 6 -5 -3 -10 -2 -10 4 0 5 -10 11
-22 13 -28 4 -33 44 -5 42 9 -1 17 3 17 9 0 6 8 19 17 29 13 15 14 18 2 13
-12 -4 -15 6 -16 52 -1 32 1 52 4 45 2 -6 8 -10 12 -8z m-679 -14 c0 -5 -4
-10 -10 -10 -5 0 -10 5 -10 10 0 6 5 10 10 10 6 0 10 -4 10 -10z m-180 -27 c0
-12 -2 -12 -15 1 -8 8 -15 17 -15 20 0 3 7 3 15 0 8 -4 15 -13 15 -21z m130
17 c0 -5 -7 -10 -15 -10 -8 0 -15 5 -15 10 0 6 7 10 15 10 8 0 15 -4 15 -10z
m-1412 -32 c11 -18 18 -36 16 -40 -5 -8 -84 -12 -84 -4 0 7 41 76 45 76 2 0
12 -14 23 -32z m959 5 c-8 -7 -37 9 -31 19 3 5 12 4 20 -3 8 -6 13 -14 11 -16z
m-917 -15 c0 -6 -7 -5 -15 2 -8 7 -15 17 -15 22 0 6 7 5 15 -2 8 -7 15 -17 15
-22z m775 22 c3 -5 -1 -10 -9 -10 -9 0 -16 5 -16 10 0 6 4 10 9 10 6 0 13 -4
16 -10z m815 -5 c0 -11 5 -12 25 -5 20 7 25 6 25 -5 0 -8 -3 -14 -7 -14 -19 3
-33 -2 -33 -12 0 -6 9 -9 20 -6 25 6 26 -8 3 -22 -10 -6 -13 -11 -7 -11 7 0
14 -9 17 -19 3 -14 1 -18 -9 -14 -8 3 -14 9 -14 13 0 4 -11 10 -25 13 -18 3
-30 -2 -40 -16 -8 -12 -16 -19 -19 -16 -6 6 -9 38 -7 74 l2 30 24 -29 c13 -16
31 -31 39 -32 22 -3 20 5 -6 27 -11 11 -16 19 -10 19 16 0 15 27 0 33 -8 3 -6
6 5 6 9 1 17 -6 17 -14z m108 3 c-3 -14 -18 -28 -31 -28 -4 0 -2 9 5 20 14 22
29 27 26 8z m32 -3 c0 -8 -4 -15 -10 -15 -5 0 -10 7 -10 15 0 8 5 15 10 15 6
0 10 -7 10 -15z m83 -6 c13 13 30 14 22 2 -3 -5 -1 -12 5 -16 5 -3 10 -1 10 4
0 6 7 11 16 11 14 0 14 -1 0 -16 -17 -16 -22 -39 -7 -30 5 3 11 -3 14 -14 7
-28 -8 -25 -32 8 l-20 27 -1 -30 c-1 -16 -4 -25 -6 -19 -3 7 -14 10 -25 7 -15
-4 -18 -2 -13 11 3 9 10 16 15 16 15 0 10 27 -6 34 -8 3 -15 10 -15 16 0 6 7
4 16 -5 12 -11 20 -13 27 -6z m-660 -4 c-3 -9 -8 -14 -10 -11 -3 3 -2 9 2 15
9 16 15 13 8 -4z m212 6 c3 -5 1 -12 -4 -15 -5 -3 -11 1 -15 9 -6 16 9 21 19
6z m65 -6 c0 -8 -2 -15 -4 -15 -2 0 -6 7 -10 15 -3 8 -1 15 4 15 6 0 10 -7 10
-15z m624 -33 c-4 -15 -7 -30 -6 -34 1 -5 -6 -8 -15 -8 -13 0 -14 3 -5 12 7 7
12 24 12 38 0 29 12 48 18 30 2 -6 1 -23 -4 -38z m-27 16 c-3 -8 -6 -5 -6 6
-1 11 2 17 5 13 3 -3 4 -12 1 -19z m-1233 -4 c3 -8 12 -14 20 -14 10 0 13 -6
10 -15 -4 -8 -1 -15 5 -15 6 0 11 3 11 8 0 4 11 8 25 8 21 2 23 -1 15 -12 -7
-7 -9 -18 -5 -24 3 -5 2 -10 -4 -10 -14 0 4 -58 25 -81 16 -18 16 -20 1 -37
-10 -10 -14 -22 -10 -26 4 -4 0 -4 -10 0 -9 3 -14 10 -11 16 3 5 -4 12 -17 15
-22 6 -22 7 -3 14 16 7 17 8 2 8 -11 1 -18 9 -18 21 0 11 -3 20 -6 20 -9 0
-34 -28 -48 -55 l-14 -26 -16 42 c-26 63 -4 132 24 79 6 -11 15 -18 21 -15 5
4 9 1 9 -6 0 -7 2 -10 5 -7 3 3 3 24 -1 47 -6 35 -10 41 -28 38 -11 -1 -27 -6
-33 -10 -10 -6 -11 -2 -4 16 6 14 8 27 6 28 -2 2 7 5 20 5 13 1 26 -4 29 -12z
m1116 -11 c0 -5 -4 -15 -10 -23 -11 -18 -25 -7 -17 15 6 15 27 21 27 8z m30
-2 c0 -6 -4 -12 -8 -15 -5 -3 -9 1 -9 9 0 8 4 15 9 15 4 0 8 -4 8 -9z m33 -11
c3 -11 3 -20 1 -20 -2 0 -8 9 -14 20 -6 11 -7 20 -2 20 6 0 12 -9 15 -20z
m107 -4 c0 -3 -4 -8 -10 -11 -5 -3 -10 -1 -10 4 0 6 5 11 10 11 6 0 10 -2 10
-4z m103 -16 c-3 -11 -10 -23 -16 -27 -7 -4 -8 0 -4 11 4 10 7 22 7 27 0 5 4
9 9 9 5 0 7 -9 4 -20z m-1215 -30 c27 -12 29 -30 2 -23 -11 3 -20 10 -20 16 0
6 -3 7 -6 4 -4 -4 -15 3 -25 15 -25 28 -24 34 4 14 12 -9 32 -21 45 -26z m279
24 c3 -8 0 -21 -6 -27 -10 -9 -16 -8 -27 7 -11 16 -11 22 -1 28 18 12 27 10
34 -8z m550 -19 c0 -8 -4 -12 -9 -9 -4 3 -8 9 -8 15 0 5 4 9 8 9 5 0 9 -7 9
-15z m-542 -25 c-3 -5 -12 -10 -18 -10 -7 0 -6 4 3 10 19 12 23 12 15 0z m319
-17 c2 -10 11 -18 22 -18 10 0 20 -8 22 -17 2 -10 -1 -18 -7 -18 -6 0 -11 5
-11 10 0 6 -5 10 -11 10 -6 0 -9 -7 -6 -14 4 -9 1 -13 -6 -11 -7 3 -18 1 -26
-4 -11 -7 -10 -12 7 -29 19 -19 32 -19 32 0 0 5 -4 6 -10 3 -5 -3 -10 -1 -10
4 0 6 6 11 14 11 10 0 14 -11 13 -35 -1 -19 -3 -35 -5 -35 -2 0 -19 16 -38 36
-19 20 -34 31 -34 23 0 -11 -2 -11 -10 1 -5 8 -10 22 -10 30 0 13 1 13 10 0 8
-13 10 -12 15 1 3 9 5 20 4 25 -4 25 3 43 19 46 21 5 23 4 26 -19z m294 -27
c-2 -1 -11 -7 -20 -14 -14 -11 -16 -10 -11 7 3 12 11 17 19 14 8 -3 14 -6 12
-7z m302 4 c0 -5 -4 -10 -10 -10 -5 0 -10 5 -10 10 0 6 5 10 10 10 6 0 10 -4
10 -10z m-450 -15 c0 -8 -4 -15 -10 -15 -5 0 -10 7 -10 15 0 8 5 15 10 15 6 0
10 -7 10 -15z m-1004 -21 c-4 -9 -9 -15 -11 -12 -3 3 -3 13 1 22 4 9 9 15 11
12 3 -3 3 -13 -1 -22z m1474 6 c0 -5 -5 -10 -11 -10 -5 0 -7 5 -4 10 3 6 8 10
11 10 2 0 4 -4 4 -10z m-379 -63 c-12 -31 -23 -34 -41 -12 -11 13 -10 14 3 9
12 -4 20 2 28 22 6 16 13 24 16 18 2 -6 -1 -23 -6 -37z m-2124 21 c-2 -7 -11
-12 -21 -10 -9 2 -16 -4 -16 -13 0 -8 -4 -15 -10 -15 -17 0 -11 28 8 39 24 14
45 13 39 -1z m2285 -10 c-7 -7 -12 -8 -12 -2 0 6 3 14 7 17 3 4 9 5 12 2 2 -3
-1 -11 -7 -17z m58 14 c0 -5 -7 -9 -15 -9 -8 0 -15 4 -15 9 0 4 7 8 15 8 8 0
15 -4 15 -8z m-1110 -12 c0 -5 -4 -10 -10 -10 -5 0 -10 5 -10 10 0 6 5 10 10
10 6 0 10 -4 10 -10z m70 0 c0 -5 -9 -10 -21 -10 -11 0 -17 5 -14 10 3 6 13
10 21 10 8 0 14 -4 14 -10z m-1370 -27 c0 -19 -3 -24 -10 -17 -6 6 -8 18 -4
27 9 24 14 21 14 -10z m1070 7 c0 -5 -10 -10 -22 -10 -19 0 -20 2 -8 10 19 13
30 13 30 0z m-100 -10 c0 -5 -5 -10 -11 -10 -5 0 -7 5 -4 10 3 6 8 10 11 10 2
0 4 -4 4 -10z m336 -17 c12 -13 23 -20 26 -17 5 5 2 -26 -8 -73 -2 -13 -11
-23 -18 -23 -8 0 -16 -6 -19 -14 -4 -11 -14 -12 -50 -3 -34 7 -44 14 -39 25 3
10 1 13 -6 8 -7 -4 -12 -14 -12 -22 0 -8 -4 -13 -9 -9 -6 3 -19 -5 -30 -17
-18 -18 -21 -19 -21 -5 0 10 -8 17 -20 17 -17 0 -19 3 -12 17 16 27 -19 56
-61 51 -24 -2 -33 0 -30 8 2 6 -3 14 -11 17 -9 4 -16 11 -16 17 0 7 6 7 21 0
11 -7 23 -9 26 -6 3 3 12 -2 21 -11 21 -20 109 -11 127 13 9 13 21 16 53 10
38 -6 42 -4 42 14 0 12 -4 18 -10 15 -5 -3 -10 -2 -10 4 0 18 45 7 66 -16z
m76 9 c-1 -8 5 -12 15 -10 10 2 17 -2 16 -9 -4 -18 24 -16 31 2 6 17 36 20 36
4 0 -6 -6 -9 -14 -6 -8 3 -18 -5 -25 -19 -6 -13 -19 -24 -30 -24 -23 0 -36 16
-21 25 7 5 5 12 -7 20 -10 7 -21 11 -26 8 -4 -3 -15 -2 -25 2 -14 5 -14 7 -2
16 20 13 56 7 52 -9z m685 -9 c-3 -3 -11 -2 -17 2 -9 6 -9 10 1 16 14 8 27 -7
16 -18z m-1972 0 c14 -19 1 -73 -17 -73 -6 0 -7 -11 -4 -25 6 -24 5 -24 -20
-13 -14 7 -21 14 -15 16 9 3 7 10 -4 22 -10 11 -15 25 -12 32 4 8 6 7 6 -4 2
-33 21 -18 21 15 0 49 21 63 45 30z m2008 10 c-7 -2 -13 -12 -13 -20 0 -9 -3
-14 -6 -10 -10 10 4 37 18 36 10 0 10 -2 1 -6z m-1478 -14 c11 -17 -1 -21 -15
-4 -8 9 -8 15 -2 15 6 0 14 -5 17 -11z m72 4 c-17 -4 -17 -6 -3 -22 11 -12 12
-20 5 -31 -9 -12 -10 -12 -5 3 3 9 4 17 2 17 -3 0 -12 3 -22 7 -12 4 -15 3
-10 -5 4 -7 3 -12 -2 -12 -5 0 -12 11 -14 25 -5 23 -2 25 31 24 20 -1 28 -3
18 -6z m58 -3 c-3 -6 4 -10 16 -10 12 0 20 -3 16 -6 -8 -9 -67 6 -67 17 0 5 9
9 21 9 11 0 17 -4 14 -10z m280 0 c3 -5 1 -10 -4 -10 -6 0 -11 5 -11 10 0 6 2
10 4 10 3 0 8 -4 11 -10z m712 -12 c2 -18 0 -20 -7 -8 -12 18 -13 30 -2 30 4
0 9 -10 9 -22z m213 2 c0 -5 -7 -7 -15 -4 -8 4 -12 10 -9 15 6 11 24 2 24 -11z
m530 0 c-8 -5 -17 -7 -19 -4 -3 3 1 9 9 14 8 5 17 7 19 4 3 -3 -1 -9 -9 -14z
m-1607 -15 c-8 -22 -22 -18 -16 5 3 11 9 17 14 15 4 -3 6 -12 2 -20z m211 19
c18 -7 10 -34 -11 -34 -9 0 -13 6 -10 14 3 8 1 17 -6 20 -18 7 8 7 27 0z
m1056 2 c0 -3 -4 -8 -10 -11 -5 -3 -10 -1 -10 4 0 6 5 11 10 11 6 0 10 -2 10
-4z m159 -18 c11 -15 11 -18 -1 -18 -7 0 -14 10 -15 21 -1 12 -1 20 0 18 2 -2
9 -12 16 -21z m-1366 -14 c-4 -10 -8 -12 -13 -4 -3 6 -14 8 -23 4 -10 -3 -17
-1 -17 5 0 6 13 11 30 11 23 0 28 -4 23 -16z m427 2 c0 -3 -4 -8 -10 -11 -5
-3 -10 -1 -10 4 0 6 5 11 10 11 6 0 10 -2 10 -4z m266 -10 c10 -8 16 -18 11
-22 -4 -4 -16 2 -27 14 -23 25 -14 29 16 8z m44 -1 c-7 -9 -15 -13 -19 -10 -3
3 1 10 9 15 21 14 24 12 10 -5z m-1004 -17 c5 -8 2 -9 -9 -5 -10 3 -17 2 -17
-4 0 -6 -5 -7 -11 -3 -8 4 -7 9 2 15 19 12 27 11 35 -3z m1402 -32 c4 -17 2
-17 -22 -1 -32 21 -34 37 -3 26 12 -5 24 -16 25 -25z m-633 15 c-57 -22 -115
-38 -115 -30 0 15 55 37 95 37 29 1 35 -1 20 -7z m-683 -16 c0 -5 -5 -11 -11
-13 -6 -2 -11 4 -11 13 0 9 5 15 11 13 6 -2 11 -8 11 -13z m38 6 c0 -5 3 -16
6 -25 4 -11 1 -16 -10 -16 -11 0 -15 8 -14 25 2 23 18 37 18 16z m760 -12 c13
-9 13 -10 -1 -6 -9 3 -22 0 -28 -6 -13 -13 -26 -3 -16 12 8 14 26 14 45 0z
m225 1 c-3 -5 -12 -10 -18 -10 -7 0 -6 4 3 10 19 12 23 12 15 0z m-51 -21 c-8
-13 -21 -11 -27 5 -4 10 0 12 14 9 10 -3 16 -9 13 -14z m821 0 c-52 -11 -72
-8 -30 5 22 7 45 10 50 7 6 -3 -3 -9 -20 -12z m-1678 -30 c-3 -10 0 -20 7 -23
6 -2 3 -5 -6 -5 -10 -1 -18 -8 -18 -17 0 -8 -5 -12 -10 -9 -6 4 -8 11 -4 16 3
5 0 8 -6 7 -7 -2 -16 8 -21 22 -6 13 -7 21 -3 18 3 -4 13 -1 20 7 19 19 47 8
41 -16z m-77 -4 c0 -15 -27 -28 -41 -19 -18 11 -8 32 16 32 14 0 25 -6 25 -13z
m448 -4 c12 -10 22 -23 22 -29 0 -8 8 -8 23 -3 17 7 30 3 54 -16 19 -13 49
-25 70 -26 20 -1 38 -8 41 -15 2 -7 -2 -13 -9 -11 -27 3 -40 -1 -34 -12 4 -6
13 -8 21 -5 8 3 21 -6 31 -20 l16 -26 12 23 c7 12 15 18 18 13 3 -5 -1 -18 -9
-28 -13 -18 -14 -18 -40 -1 -24 15 -26 16 -21 1 4 -10 1 -16 -8 -16 -7 0 -15
8 -18 18 -3 14 -6 13 -15 -8 -6 -14 -11 -18 -11 -10 -1 12 -10 15 -40 12 -22
-2 -48 1 -58 7 -15 9 -13 11 17 12 35 1 35 1 6 8 -23 5 -32 14 -40 42 -10 33
-13 36 -34 28 -13 -5 -26 -18 -29 -29 -6 -23 -28 -22 -28 1 0 8 -4 20 -9 27
-5 9 -1 18 10 27 11 9 14 14 7 15 -9 0 -7 6 5 19 22 25 25 25 50 2z m143 -1
c13 0 17 -5 12 -16 -5 -14 -3 -15 16 -4 21 11 22 10 11 -9 -13 -26 -40 -28
-41 -3 -1 16 -2 16 -6 -1 -2 -9 -8 -15 -13 -12 -5 3 -6 13 -3 22 5 12 2 15 -8
11 -8 -3 -20 0 -26 8 -10 10 -8 13 10 16 12 2 24 0 25 -4 2 -5 12 -8 23 -8z
m409 10 c0 -5 -4 -10 -10 -10 -5 0 -10 5 -10 10 0 6 5 10 10 10 6 0 10 -4 10
-10z m-292 -8 c14 -10 -9 -34 -43 -46 -19 -6 -19 -5 -2 8 9 7 17 21 17 30 0
18 8 20 28 8z m1049 -24 c-11 -15 -24 -25 -28 -22 -4 2 -13 -5 -19 -16 -6 -11
-15 -18 -21 -15 -5 4 -6 12 -3 18 5 8 3 8 -7 0 -19 -18 -29 -16 -29 7 0 11 4
20 9 20 5 0 12 8 15 18 5 14 17 17 54 17 l49 0 -20 -27z m-2407 12 c0 -5 -5
-10 -11 -10 -5 0 -7 5 -4 10 3 6 8 10 11 10 2 0 4 -4 4 -10z m473 -11 c-8 -8
-16 -8 -30 0 -16 9 -14 10 12 11 21 0 26 -3 18 -11z m1132 -10 c10 -14 2 -20
-34 -24 -22 -3 -31 0 -31 10 0 21 54 33 65 14z m665 1 c0 -13 -11 -13 -30 0
-12 8 -11 10 8 10 12 0 22 -4 22 -10z m-860 -55 c0 -2 -7 -5 -15 -9 -9 -3 -15
0 -15 9 0 9 6 12 15 9 8 -4 15 -7 15 -9z m125 5 c-3 -5 -10 -10 -16 -10 -5 0
-9 5 -9 10 0 6 7 10 16 10 8 0 12 -4 9 -10z m51 -15 c-30 -30 -36 -31 -36 -6
0 18 14 27 48 30 7 0 2 -10 -12 -24z m-176 -15 c0 -5 -7 -10 -16 -10 -8 0 -12
5 -9 10 3 6 10 10 16 10 5 0 9 -4 9 -10z m230 0 c0 -5 -9 -10 -20 -10 -11 0
-20 -4 -20 -10 0 -5 -5 -10 -11 -10 -20 0 -3 24 22 31 13 4 25 7 27 8 1 1 2
-3 2 -9z m684 -6 c5 -13 2 -15 -16 -10 -13 3 -27 6 -31 6 -5 0 -5 5 -2 10 10
16 42 12 49 -6z m-1361 -21 c11 -18 37 -16 58 3 17 15 21 15 41 2 13 -8 40
-21 61 -28 27 -8 36 -15 29 -22 -12 -12 -133 -17 -125 -5 2 4 -6 7 -19 7 -22
0 -21 -2 10 -31 19 -18 43 -32 55 -33 12 -1 26 -11 32 -23 9 -17 14 -20 23
-11 18 18 14 -3 -5 -24 -9 -10 -11 -18 -5 -18 6 0 9 -7 6 -15 -9 -22 -24 -8
-24 23 0 23 -7 30 -45 43 -43 16 -45 16 -45 -2 0 -15 -7 -19 -34 -19 -75 0
-126 41 -126 102 0 16 3 18 13 9 8 -6 17 -8 20 -4 4 3 7 -3 7 -15 0 -23 7 -26
35 -16 13 5 14 9 4 15 -10 6 -7 11 11 18 l25 10 -28 0 c-16 1 -26 5 -22 11 4
6 10 8 15 5 16 -10 17 20 1 33 -14 10 -13 11 4 5 11 -3 24 -12 28 -20z m-396
-13 c-6 -10 -15 -16 -21 -13 -5 4 -7 0 -4 -8 7 -17 -37 -25 -47 -9 -3 6 1 10
9 10 9 0 16 5 16 10 0 6 7 10 15 10 8 0 12 6 9 14 -4 11 0 13 15 9 17 -4 18
-8 8 -23z m283 20 c0 -5 -10 -10 -22 -9 -22 0 -22 1 -3 9 11 5 21 9 23 9 1 1
2 -3 2 -9z m1398 -18 c2 -7 -3 -12 -12 -12 -9 0 -16 7 -16 16 0 17 22 14 28
-4z m-528 -1 c0 -6 -4 -13 -10 -16 -5 -3 -10 1 -10 9 0 9 5 16 10 16 6 0 10
-4 10 -9z m-326 -33 c-6 -10 -4 -10 7 0 19 17 29 15 29 -7 0 -27 -19 -36 -37
-18 -9 8 -12 20 -9 26 10 15 19 14 10 -1z m361 -27 c-3 -12 -11 -18 -17 -15
-6 4 -5 10 3 15 8 5 10 9 6 9 -5 0 -5 5 -2 11 11 16 18 3 10 -20z m278 10 c-3
-12 -14 -18 -29 -18 -30 0 -31 15 -1 27 32 13 36 12 30 -9z m-851 -13 c-7 -7
-12 -8 -12 -2 0 6 3 14 7 17 3 4 9 5 12 2 2 -3 -1 -11 -7 -17z m281 7 c-3 -9
-8 -14 -10 -11 -3 3 -2 9 2 15 9 16 15 13 8 -4z m747 11 c0 -3 -4 -8 -10 -11
-5 -3 -10 -1 -10 4 0 6 5 11 10 11 6 0 10 -2 10 -4z m-1150 -21 c0 -8 -2 -15
-4 -15 -2 0 -6 7 -10 15 -3 8 -1 15 4 15 6 0 10 -7 10 -15z m950 -15 c0 -5 -5
-10 -11 -10 -5 0 -7 5 -4 10 3 6 8 10 11 10 2 0 4 -4 4 -10z m-1553 -15 c0
-17 -13 -20 -21 -6 -4 5 0 12 6 14 7 3 13 6 14 6 0 1 1 -6 1 -14z m703 5 c0
-5 -5 -10 -11 -10 -5 0 -7 5 -4 10 3 6 8 10 11 10 2 0 4 -4 4 -10z m-940 -21
c0 -5 -13 -21 -28 -36 -29 -29 -35 -75 -18 -133 7 -23 6 -23 -13 5 -21 31 -29
19 -11 -16 8 -13 7 -19 0 -19 -6 0 -13 14 -16 30 -4 17 -10 30 -15 30 -16 0
-9 64 11 105 18 36 20 37 15 10 l-6 -30 20 31 c25 40 61 54 61 23z m1537 1
c-5 -31 -17 -36 -17 -7 0 15 4 27 10 27 5 0 9 -9 7 -20z m583 14 c0 -19 -23
-44 -33 -37 -7 5 -33 10 -59 11 -43 3 -48 1 -48 -18 0 -17 -5 -21 -28 -19 -15
2 -32 0 -37 -3 -6 -4 -17 -2 -25 3 -12 7 -13 11 -2 18 8 4 12 12 10 17 -1 5
44 14 102 20 58 6 108 12 113 13 4 0 7 -2 7 -5z m-2060 -25 c0 -11 -4 -17 -10
-14 -17 10 -11 -29 11 -74 11 -24 18 -45 15 -49 -3 -3 -1 -11 5 -18 7 -9 5
-18 -8 -33 -60 -71 -101 58 -51 161 25 51 38 60 38 27z m134 -21 c16 6 25 0
19 -13 -5 -14 -7 -14 -24 1 -10 9 -23 13 -28 9 -6 -3 -11 -1 -11 6 0 7 -8 5
-20 -6 -15 -14 -20 -15 -20 -4 0 24 17 42 34 36 9 -4 16 -1 16 6 1 7 7 1 15
-13 7 -14 16 -24 19 -22z m1016 -8 c0 -5 -4 -10 -10 -10 -5 0 -10 5 -10 10 0
6 5 10 10 10 6 0 10 -4 10 -10z m126 -26 c-4 -10 2 -14 20 -14 13 0 27 -7 30
-15 4 -8 12 -15 20 -15 17 0 19 -16 2 -18 -7 -1 -28 -5 -47 -8 -26 -5 -32 -4
-29 7 3 8 -3 31 -13 51 -24 47 -24 51 2 38 12 -7 18 -18 15 -26z m208 -36 c9
-43 16 -54 34 -56 23 -4 29 -17 11 -27 -6 -4 -21 2 -33 14 -26 24 -45 28 -26
6 7 -9 10 -18 7 -21 -3 -3 -10 4 -17 15 -6 12 -15 19 -21 16 -10 -7 -21 16
-23 48 -1 17 -7 21 -26 20 -14 -1 -19 0 -12 3 6 3 12 12 12 20 0 23 46 17 58
-8 10 -22 11 -22 11 6 1 41 11 27 25 -36z m-717 29 c0 -1 4 -20 8 -41 6 -31 5
-38 -6 -32 -8 4 -6 1 4 -7 9 -8 17 -20 17 -28 0 -11 -2 -11 -8 -2 -5 7 -19 10
-36 7 -17 -3 -25 -1 -21 6 3 6 -4 10 -17 10 -17 0 -19 3 -10 9 10 6 7 10 -12
15 -28 7 -36 26 -11 26 8 0 12 6 9 14 -4 11 0 13 15 9 17 -4 20 -2 15 12 -6
16 -3 17 22 11 16 -4 30 -8 31 -9z m363 3 c0 -5 7 -10 15 -10 24 0 17 -28 -7
-32 -17 -2 -22 -9 -20 -23 2 -11 8 -21 12 -23 5 -2 6 -10 3 -18 -3 -8 0 -14 5
-14 6 0 14 9 17 20 3 11 10 20 15 20 5 0 17 3 27 6 14 4 15 4 4 -4 -7 -5 -10
-15 -6 -22 5 -9 2 -10 -14 -5 -17 5 -20 3 -14 -11 4 -12 3 -15 -5 -10 -7 4
-12 3 -12 -3 0 -5 -8 -8 -17 -6 -10 2 -21 4 -25 4 -5 1 -8 9 -8 19 0 13 -2 14
-9 4 -6 -10 -11 -9 -22 4 -12 16 -12 17 2 12 9 -3 21 -3 27 1 20 12 -10 54
-46 63 -18 5 -30 13 -27 19 7 10 42 8 61 -4 7 -4 14 0 18 8 6 17 26 21 26 5z
m928 -23 c2 -12 -3 -17 -18 -17 -15 0 -20 -5 -17 -14 3 -8 -2 -16 -13 -19 -13
-3 -17 0 -13 9 3 8 -1 14 -10 14 -9 0 -19 5 -23 12 -5 7 -3 8 6 3 10 -6 12 -4
6 11 -4 10 -4 16 -1 12 3 -3 18 -2 33 2 35 10 46 7 50 -13z m-1114 -2 c-25
-19 -40 -19 -24 0 7 8 20 15 28 15 13 0 12 -3 -4 -15z m270 -1 c8 -22 8 -23
-9 -20 -20 3 -28 13 -20 25 9 16 22 13 29 -5z m41 6 c3 -5 2 -10 -3 -10 -6 0
-8 -9 -5 -20 4 -14 0 -20 -12 -20 -14 0 -15 3 -6 14 8 10 9 16 1 21 -11 7 -4
25 10 25 5 0 12 -4 15 -10z m632 -16 c-3 -3 -12 -4 -19 -1 -8 3 -5 6 6 6 11 1
17 -2 13 -5z m-957 -36 c52 -36 58 -52 28 -79 -14 -13 -23 -30 -21 -36 3 -7 0
-13 -6 -13 -6 0 -14 12 -17 26 -4 17 -9 22 -14 14 -10 -17 -20 2 -15 28 2 12
-3 23 -11 26 -23 9 -9 55 17 56 3 0 21 -10 39 -22z m76 11 c3 -6 15 -9 25 -6
23 6 24 -12 4 -63 -10 -26 -14 -29 -14 -14 -1 27 -30 95 -31 72 0 -10 -4 -18
-10 -18 -12 0 -12 3 -4 24 7 19 20 21 30 5z m634 -18 c0 -12 -20 -27 -47 -35
-19 -6 -22 -4 -17 9 9 23 64 45 64 26z m-208 -43 c22 -21 36 -43 32 -49 -5 -8
-9 -7 -14 2 -7 10 -11 10 -24 0 -14 -12 -16 -10 -16 8 0 21 -1 21 -31 6 -17
-9 -37 -14 -45 -11 -7 3 -16 0 -20 -6 -5 -7 -11 -5 -20 6 -7 10 -16 17 -21 17
-4 -1 -8 5 -8 12 0 6 -4 18 -8 25 -8 11 -4 15 31 24 6 2 33 3 59 3 40 0 52 -5
85 -37z m518 12 c0 -5 -7 -10 -15 -10 -8 0 -15 -7 -15 -15 0 -17 -25 -20 -35
-5 -3 6 -1 10 5 10 7 0 10 7 6 15 -4 11 2 15 24 15 17 0 30 -4 30 -10z m-840
-40 c0 -5 -5 -10 -11 -10 -5 0 -7 5 -4 10 3 6 8 10 11 10 2 0 4 -4 4 -10z
m110 -10 c0 -5 -4 -10 -10 -10 -5 0 -10 5 -10 10 0 6 5 10 10 10 6 0 10 -4 10
-10z m-248 -32 c-7 -7 -12 -8 -12 -2 0 6 3 14 7 17 3 4 9 5 12 2 2 -3 -1 -11
-7 -17z m41 7 c-3 -9 -8 -14 -10 -11 -3 3 -2 9 2 15 9 16 15 13 8 -4z m427
-19 c0 -8 8 -16 18 -18 16 -5 19 -17 21 -84 3 -96 3 -107 1 -119 -1 -6 -2 -26
-1 -46 1 -34 4 -37 37 -42 20 -4 47 -16 60 -28 27 -25 32 -59 9 -59 -8 0 -15
8 -15 17 0 13 -3 14 -12 5 -17 -17 -43 5 -27 24 6 8 7 14 2 14 -15 0 -36 -47
-30 -64 4 -10 1 -16 -7 -16 -8 0 -17 6 -19 13 -3 7 -6 7 -6 1 -1 -6 10 -23 24
-38 14 -15 25 -30 25 -34 -1 -13 -40 -57 -40 -44 0 6 -7 12 -15 12 -18 0 -23
22 -29 120 -2 41 -10 107 -16 145 -15 86 -19 137 -12 149 8 13 8 75 0 70 -3
-2 -8 -1 -11 3 -2 5 -2 2 0 -6 3 -11 1 -12 -12 -1 -10 8 -15 9 -15 1 0 -19
-27 -12 -33 9 -5 21 3 25 63 33 31 4 40 0 40 -17z m-1027 7 c-7 -2 -21 -2 -30
0 -10 3 -4 5 12 5 17 0 24 -2 18 -5z m1104 1 c-3 -3 -12 -4 -19 -1 -8 3 -5 6
6 6 11 1 17 -2 13 -5z m77 0 c9 -3 16 -10 16 -16 0 -14 -43 -5 -48 10 -4 13 7
15 32 6z m-1172 -72 c-7 -5 -10 -16 -7 -24 7 -17 -21 -68 -37 -68 -5 0 -6 5
-2 11 3 6 0 15 -7 20 -10 6 -10 9 -2 9 7 0 19 14 28 30 9 17 21 30 28 30 9 0
9 -2 -1 -8z m327 -24 c-1 -24 -3 -27 -6 -10 -2 12 -11 22 -19 22 -8 0 -12 5
-9 10 14 23 35 10 34 -22z m421 -3 c-7 -8 -20 -15 -29 -15 -12 1 -11 5 8 21
26 22 41 18 21 -6z m147 -1 c-3 -3 -12 -4 -19 -1 -8 3 -5 6 6 6 11 1 17 -2 13
-5z m802 -8 c9 -10 7 -13 -11 -12 -12 0 -23 7 -26 14 -5 16 23 15 37 -2z
m-839 -25 c0 -6 -4 -13 -10 -16 -5 -3 -10 1 -10 9 0 9 5 16 10 16 6 0 10 -4
10 -9z m-543 -23 c-3 -8 -6 -5 -6 6 -1 11 2 17 5 13 3 -3 4 -12 1 -19z m621 0
c-20 -31 -42 -37 -33 -9 4 13 2 21 -5 21 -6 0 -9 -4 -6 -9 3 -5 -2 -15 -11
-22 -9 -8 -14 -9 -10 -2 4 6 1 14 -5 16 -22 9 13 27 51 27 32 0 33 -1 19 -22z
m-167 -16 c-6 -11 -6 -24 0 -33 15 -24 10 -37 -12 -32 -29 8 -34 29 -15 58 19
29 42 35 27 7z m39 14 c0 -3 -4 -8 -10 -11 -5 -3 -10 -1 -10 4 0 6 5 11 10 11
6 0 10 -2 10 -4z m160 -12 c0 -8 -4 -12 -10 -9 -5 3 -10 10 -10 16 0 5 5 9 10
9 6 0 10 -7 10 -16z m-1033 -11 c4 -10 -37 -26 -45 -18 -3 3 1 12 8 20 14 17
31 16 37 -2z m763 7 c0 -5 -7 -10 -16 -10 -8 0 -12 5 -9 10 3 6 10 10 16 10 5
0 9 -4 9 -10z m-33 -36 c-3 -3 -12 -4 -19 -1 -8 3 -5 6 6 6 11 1 17 -2 13 -5z
m-1127 -25 c0 -5 -7 -9 -15 -9 -15 0 -20 12 -9 23 8 8 24 -1 24 -14z m1423 1
c-3 -12 -8 -19 -11 -16 -5 6 5 36 12 36 2 0 2 -9 -1 -20z m187 13 c-8 -4 -21
-12 -28 -20 -7 -7 -21 -13 -30 -12 -11 0 -12 2 -4 6 6 2 12 11 12 19 0 9 11
14 33 13 17 0 25 -3 17 -6z m-506 -18 c-7 -16 -24 -21 -24 -6 0 8 7 13 27 20
1 1 0 -6 -3 -14z m250 0 c-4 -8 -8 -15 -10 -15 -2 0 -4 7 -4 15 0 8 4 15 10
15 5 0 7 -7 4 -15z m384 -7 c2 -4 10 -8 17 -8 21 0 14 -36 -8 -37 -13 -1 -17
4 -15 20 2 16 -2 22 -17 22 -14 0 -21 -8 -23 -27 -2 -16 -9 -28 -17 -28 -15 0
-15 45 -1 69 8 12 59 4 64 -11z m104 -33 c-2 -14 -11 -25 -18 -25 -18 0 -18 9
3 32 21 23 21 23 15 -7z m-692 -5 c0 -5 -5 -10 -11 -10 -5 0 -7 5 -4 10 3 6 8
10 11 10 2 0 4 -4 4 -10z m1028 -32 c-2 -13 -11 -24 -21 -26 -22 -4 -35 27
-16 39 25 16 41 10 37 -13z m-1153 2 c3 -5 -1 -10 -9 -10 -8 0 -18 5 -21 10
-3 6 1 10 9 10 8 0 18 -4 21 -10z m975 0 c0 -5 -4 -10 -10 -10 -5 0 -10 5 -10
10 0 6 5 10 10 10 6 0 10 -4 10 -10z m-610 -20 c0 -5 -5 -10 -11 -10 -5 0 -7
5 -4 10 3 6 8 10 11 10 2 0 4 -4 4 -10z m-260 -24 c0 -3 -4 -8 -10 -11 -5 -3
-10 -1 -10 4 0 6 5 11 10 11 6 0 10 -2 10 -4z m-40 -16 c0 -5 -2 -10 -4 -10
-3 0 -8 5 -11 10 -3 6 -1 10 4 10 6 0 11 -4 11 -10z m899 -11 c-9 -17 -13 -19
-19 -8 -11 16 -4 29 16 29 12 0 13 -4 3 -21z m-637 -51 c-7 -7 -12 -8 -12 -2
0 14 12 26 19 19 2 -3 -1 -11 -7 -17z m373 1 c-3 -4 7 -10 20 -13 14 -4 23
-11 20 -16 -4 -6 -18 -4 -36 7 -32 19 -37 30 -14 30 8 0 12 -4 10 -8z m210 1
c-3 -5 -10 -10 -16 -10 -5 0 -9 5 -9 10 0 6 7 10 16 10 8 0 12 -4 9 -10z
m-555 -25 c0 -8 -7 -15 -15 -15 -16 0 -20 12 -8 23 11 12 23 8 23 -8z m550 1
c0 -2 -3 -11 -6 -20 -9 -23 -24 -20 -24 4 0 11 7 20 15 20 8 0 15 -2 15 -4z
m-309 -20 c-1 -16 -31 -15 -31 1 0 8 7 13 16 11 8 -2 15 -7 15 -12z m-251 -27
c0 -6 -4 -7 -10 -4 -5 3 -10 11 -10 16 0 6 5 7 10 4 6 -3 10 -11 10 -16z m210
-3 c0 -3 -4 -8 -10 -11 -5 -3 -10 -1 -10 4 0 6 5 11 10 11 6 0 10 -2 10 -4z
m308 -31 c16 -34 15 -45 -3 -45 -16 0 -35 30 -35 54 0 25 26 19 38 -9z m-1043
-15 c3 -5 2 -10 -4 -10 -5 0 -13 5 -16 10 -3 6 -2 10 4 10 5 0 13 -4 16 -10z
m-295 -40 c0 -5 23 -46 50 -91 40 -65 50 -91 50 -126 0 -47 -16 -59 -25 -18
-3 14 -7 37 -10 51 -3 14 -17 44 -31 66 -39 61 -67 147 -44 133 6 -3 10 -10
10 -15z m1132 -12 c-3 -14 -7 -16 -18 -7 -20 16 -17 28 5 26 12 -1 17 -7 13
-19z m173 4 c-3 -3 -11 0 -18 7 -9 10 -8 11 6 5 10 -3 15 -9 12 -12z m-173
-46 c12 -9 15 -16 9 -20 -15 -10 -113 -4 -128 7 -7 5 -17 6 -23 2 -5 -3 -10
-2 -10 4 0 21 123 27 152 7z m388 -20 c0 -3 -4 -8 -10 -11 -5 -3 -10 -1 -10 4
0 6 5 11 10 11 6 0 10 -2 10 -4z m-1230 -48 c0 -6 -7 -5 -15 2 -8 7 -15 17
-15 22 0 6 7 5 15 -2 8 -7 15 -17 15 -22z m827 -4 c-3 -3 -12 -4 -19 -1 -8 3
-5 6 6 6 11 1 17 -2 13 -5z m-693 -40 c3 -8 2 -12 -4 -9 -6 3 -10 10 -10 16 0
14 7 11 14 -7z m936 6 c0 -5 -4 -10 -9 -10 -6 0 -13 5 -16 10 -3 6 1 10 9 10
9 0 16 -4 16 -10z m-1310 -68 c0 -7 -6 -12 -12 -10 -7 3 -13 17 -13 32 -1 25
0 26 12 10 7 -10 13 -24 13 -32z m798 28 c6 0 12 -7 12 -16 0 -18 -35 -10 -60
14 -13 14 -13 15 10 9 14 -4 31 -7 38 -7z m57 0 c3 -6 -1 -7 -9 -4 -18 7 -21
14 -7 14 6 0 13 -4 16 -10z m505 -24 c0 -11 -19 -15 -25 -6 -3 5 1 10 9 10 9
0 16 -2 16 -4z m64 -18 c-17 -19 -17 -21 -1 -15 9 4 17 2 17 -3 0 -6 -9 -10
-20 -10 -34 0 -17 43 19 49 2 1 -4 -9 -15 -21z m-754 2 c0 -5 -7 -10 -15 -10
-8 0 -15 5 -15 10 0 6 7 10 15 10 8 0 15 -4 15 -10z m638 -42 c-2 -7 3 -12 10
-10 8 1 12 -3 10 -10 -6 -18 -33 -16 -34 2 0 16 5 30 12 30 2 0 3 -6 2 -12z
m-83 -8 c3 -5 16 -10 28 -10 20 0 20 0 2 -14 -17 -12 -21 -12 -33 5 -7 11 -18
17 -23 14 -5 -4 -9 -1 -9 4 0 14 27 14 35 1z m-541 -45 c3 -9 0 -15 -9 -15
-16 0 -27 14 -18 24 10 10 21 7 27 -9z m-74 -5 c0 -5 -2 -10 -4 -10 -3 0 -8 5
-11 10 -3 6 -1 10 4 10 6 0 11 -4 11 -10z m915 0 c3 -5 1 -10 -4 -10 -6 0 -11
5 -11 10 0 6 2 10 4 10 3 0 8 -4 11 -10z m-775 -21 c0 -5 14 -7 30 -4 17 3 30
1 30 -4 0 -16 -44 -17 -72 -1 -33 18 -37 30 -8 23 11 -3 20 -9 20 -14z m-150
-9 c0 -5 7 -6 17 -3 11 4 14 3 9 -5 -10 -16 -46 -15 -46 1 0 9 -3 8 -9 -2 -5
-8 -11 -9 -15 -3 -3 6 0 13 6 15 22 9 38 8 38 -3z m249 -9 c7 -5 9 -11 5 -14
-5 -3 -15 1 -22 9 -14 16 -5 18 17 5z m-181 -15 c10 15 42 13 42 -3 0 -7 -9
-13 -21 -13 -11 0 -18 -4 -15 -9 4 -5 -3 -7 -14 -4 -12 3 -20 14 -20 27 0 17
2 18 10 6 7 -10 12 -12 18 -4z m148 -7 c11 -19 -14 -32 -56 -31 -22 1 -40 -3
-40 -8 0 -6 -5 -10 -11 -10 -5 0 -8 4 -5 9 4 5 0 12 -6 14 -15 6 7 9 70 9 34
1 40 3 31 14 -8 10 -8 14 -1 14 6 0 14 -5 18 -11z m-189 -13 c4 -4 1 -11 -7
-16 -22 -14 -30 -12 -30 9 0 19 21 23 37 7z m543 4 c0 -5 -8 -10 -17 -10 -15
0 -16 2 -3 10 19 12 20 12 20 0z m-313 -6 c-3 -3 -12 -4 -19 -1 -8 3 -5 6 6 6
11 1 17 -2 13 -5z m-212 -44 c-3 -5 -12 -7 -20 -3 -21 7 -19 13 6 13 11 0 18
-4 14 -10z m160 -70 c-3 -5 -12 -10 -18 -10 -7 0 -6 4 3 10 19 12 23 12 15 0z
m85 -20 c0 -12 -40 -33 -48 -25 -4 4 2 13 12 21 23 16 36 18 36 4z m-145 -20
c-16 -11 -34 -20 -40 -20 -16 1 38 40 55 40 8 0 2 -9 -15 -20z m215 -15 c0 -2
-16 -13 -36 -25 -47 -27 -68 -11 -23 18 26 16 59 20 59 7z m-28 -87 c-6 -6
-15 -8 -19 -4 -4 4 -1 11 7 16 19 12 27 3 12 -12z m-48 -32 c-3 -8 -13 -17
-22 -21 -13 -5 -13 -2 3 15 21 24 26 25 19 6z m94 -11 c-6 -14 -15 -25 -20
-25 -9 0 -4 14 15 38 15 19 18 14 5 -13z m307 -45 c3 -5 -1 -10 -10 -10 -9 0
-13 5 -10 10 3 6 8 10 10 10 2 0 7 -4 10 -10z m164 -80 c7 0 9 -4 6 -10 -3 -5
-13 -10 -21 -10 -8 0 -12 5 -9 10 3 6 -1 10 -9 10 -9 0 -16 7 -16 17 0 15 1
15 18 0 10 -10 24 -17 31 -17z m111 -13 c10 -4 8 -6 -6 -6 -12 -1 -25 6 -28
15 -5 13 -3 14 6 7 7 -6 20 -13 28 -16z m-220 -151 c0 -2 -7 -9 -15 -16 -13
-11 -14 -10 -9 4 5 14 24 23 24 12z m270 -386 c0 -5 -5 -10 -11 -10 -5 0 -7 5
-4 10 3 6 8 10 11 10 2 0 4 -4 4 -10z"/>
<path d="M1438 3093 c7 -3 16 -2 19 1 4 3 -2 6 -13 5 -11 0 -14 -3 -6 -6z"/>
<path d="M1430 3066 c0 -21 23 -26 40 -8 13 14 12 15 -3 9 -9 -3 -17 -2 -17 3
0 6 -4 10 -10 10 -5 0 -10 -6 -10 -14z"/>
<path d="M2730 2790 c0 -5 5 -10 11 -10 5 0 7 5 4 10 -3 6 -8 10 -11 10 -2 0
-4 -4 -4 -10z"/>
<path d="M2915 2860 c-3 -5 -1 -10 4 -10 6 0 11 5 11 10 0 6 -2 10 -4 10 -3 0
-8 -4 -11 -10z"/>
<path d="M1835 2580 c-3 -5 -1 -10 4 -10 6 0 11 5 11 10 0 6 -2 10 -4 10 -3 0
-8 -4 -11 -10z"/>
<path d="M2200 2556 c0 -2 7 -9 15 -16 13 -11 14 -10 9 4 -5 14 -24 23 -24 12z"/>
<path d="M2360 2465 c-7 -9 -8 -15 -2 -15 5 0 12 7 16 15 3 8 4 15 2 15 -2 0
-9 -7 -16 -15z"/>
<path d="M2145 2179 c-4 -6 -5 -12 -2 -15 2 -3 7 2 10 11 7 17 1 20 -8 4z"/>
<path d="M2320 2100 c0 -5 5 -10 11 -10 5 0 7 5 4 10 -3 6 -8 10 -11 10 -2 0
-4 -4 -4 -10z"/>
<path d="M2868 1972 c-18 -4 -23 -14 -12 -25 4 -3 13 1 21 9 18 17 15 22 -9
16z"/>
<path d="M2862 1855 c0 -16 2 -22 5 -12 2 9 2 23 0 30 -3 6 -5 -1 -5 -18z"/>
<path d="M1812 1920 c-7 -11 -8 -20 -3 -20 9 0 24 30 18 36 -1 2 -8 -6 -15
-16z"/>
<path d="M3530 3584 c0 -8 5 -12 10 -9 6 4 8 11 5 16 -9 14 -15 11 -15 -7z"/>
<path d="M918 3572 c-7 -25 16 -31 26 -6 3 8 2 13 -3 9 -5 -3 -11 0 -13 7 -3
7 -7 2 -10 -10z"/>
<path d="M3587 3578 c-2 -7 -1 -22 4 -33 6 -16 8 -14 8 13 1 33 -4 41 -12 20z"/>
<path d="M3462 3480 c0 -14 2 -19 5 -12 2 6 2 18 0 25 -3 6 -5 1 -5 -13z"/>
<path d="M572 3447 l-23 -13 27 -24 26 -25 -5 25 c-2 14 -2 20 0 13 6 -18 33
-24 33 -8 0 8 -4 15 -10 15 -5 0 -10 7 -10 15 0 18 -8 18 -38 2z"/>
<path d="M643 3414 c-3 -8 -1 -20 6 -27 8 -8 11 -4 11 16 0 30 -7 35 -17 11z"/>
<path d="M1116 3393 c-6 -14 -5 -15 5 -6 7 7 10 15 7 18 -3 3 -9 -2 -12 -12z"/>
<path d="M1171 3397 c0 -10 -5 -16 -9 -13 -4 2 -6 -11 -4 -30 2 -19 6 -34 8
-34 11 0 19 39 13 65 -3 17 -7 22 -8 12z"/>
<path d="M1117 3344 c-4 -4 -7 -14 -7 -23 0 -11 3 -12 11 -4 6 6 10 16 7 23
-2 6 -7 8 -11 4z"/>
<path d="M1199 3285 c-1 -6 0 -19 1 -29 1 -15 -3 -18 -22 -13 -12 4 -29 7 -37
7 -7 0 -11 6 -8 14 4 10 1 13 -9 9 -7 -3 -14 -7 -14 -10 0 -9 29 -33 40 -33 6
0 8 -4 5 -10 -3 -5 3 -10 14 -10 26 0 58 57 42 73 -6 6 -12 7 -12 2z"/>
<path d="M1070 3246 c0 -14 29 -30 38 -21 3 3 0 5 -7 5 -8 0 -11 7 -7 15 3 9
0 15 -9 15 -8 0 -15 -6 -15 -14z"/>
<path d="M533 3183 c-18 -38 -16 -43 15 -43 15 0 22 3 15 8 -6 4 -13 19 -15
34 l-3 28 -12 -27z"/>
<path d="M1190 3190 c0 -5 5 -10 11 -10 5 0 7 5 4 10 -3 6 -8 10 -11 10 -2 0
-4 -4 -4 -10z"/>
<path d="M460 3181 c0 -5 7 -12 16 -15 14 -5 15 -4 4 9 -14 17 -20 19 -20 6z"/>
<path d="M363 3153 c-13 -2 -23 -8 -23 -12 0 -5 20 -4 45 2 40 9 47 8 60 -9 8
-10 12 -26 9 -36 -3 -9 0 -19 6 -23 5 -3 10 -1 10 5 0 6 8 9 18 6 9 -3 31 -8
47 -11 26 -6 25 -4 -10 13 -22 11 -51 31 -64 46 -24 25 -44 29 -98 19z"/>
<path d="M951 3117 c-1 -26 -5 -36 -13 -31 -7 4 -8 3 -4 -4 4 -7 14 -12 22
-12 15 0 17 20 4 60 -7 22 -8 21 -9 -13z"/>
<path d="M410 3136 c0 -2 8 -10 18 -17 15 -13 16 -12 3 4 -13 16 -21 21 -21
13z"/>
<path d="M1040 3131 c0 -5 5 -13 10 -16 6 -3 10 -2 10 4 0 5 -4 13 -10 16 -5
3 -10 2 -10 -4z"/>
<path d="M150 3115 c0 -8 5 -15 10 -15 6 0 10 7 10 15 0 8 -4 15 -10 15 -5 0
-10 -7 -10 -15z"/>
<path d="M540 3113 c6 -13 18 -23 28 -22 14 0 14 2 2 6 -8 4 -21 13 -28 22
-11 14 -11 13 -2 -6z"/>
<path d="M1077 3107 c-20 -25 -22 -37 -4 -37 16 0 41 40 30 51 -4 4 -16 -2
-26 -14z"/>
<path d="M305 3090 c-3 -5 -1 -10 4 -10 6 0 11 5 11 10 0 6 -2 10 -4 10 -3 0
-8 -4 -11 -10z"/>
<path d="M746 3074 c-8 -21 -8 -34 2 -34 4 0 9 11 10 25 2 28 -3 32 -12 9z"/>
<path d="M920 3033 c0 -24 7 -28 27 -15 21 13 19 35 -4 37 -18 1 -23 -4 -23
-22z"/>
<path d="M978 3045 c-4 -4 -4 -13 -2 -20 3 -7 -3 -15 -13 -18 -17 -4 -17 -4 0
-12 23 -10 29 -3 25 30 -2 15 -6 24 -10 20z"/>
<path d="M746 3018 c4 -6 8 -26 9 -42 1 -17 5 -40 10 -51 5 -15 3 -13 -11 5
-10 14 -24 29 -31 33 -7 4 -13 14 -13 22 0 8 -7 11 -20 8 -27 -7 -32 -17 -21
-45 6 -12 10 -18 10 -11 1 6 10 11 20 10 11 0 19 -4 18 -7 -1 -3 4 -15 11 -27
13 -24 4 -95 -17 -128 -12 -20 -12 -20 -6 0 15 47 16 73 4 80 -8 6 -10 4 -4
-5 4 -7 2 -16 -6 -21 -21 -13 -26 -11 -33 16 -4 14 -11 25 -16 25 -14 0 -12
-30 4 -61 7 -14 16 -38 20 -53 6 -23 9 -26 21 -16 8 6 18 9 23 6 5 -3 10 6 10
20 0 15 5 30 12 34 7 4 9 16 5 29 -4 13 -2 21 5 21 6 0 8 -4 5 -10 -3 -5 -1
-10 5 -10 7 0 9 -7 6 -16 -4 -10 -2 -13 6 -8 7 5 9 0 6 -14 -4 -12 -2 -20 3
-16 5 3 9 -1 9 -8 0 -10 2 -10 9 1 5 7 11 9 13 5 3 -5 3 -3 1 5 -2 8 4 22 13
32 16 17 15 20 -7 38 -19 16 -21 20 -7 21 9 0 20 4 23 10 3 5 0 7 -8 4 -23 -8
-28 22 -6 42 31 28 22 37 -13 13 -18 -12 -27 -16 -20 -9 16 19 15 40 -3 40 -8
0 -17 11 -21 25 -3 14 -10 25 -16 25 -5 0 -6 -5 -2 -12z m-41 -48 c3 -5 2 -10
-4 -10 -5 0 -13 5 -16 10 -3 6 -2 10 4 10 5 0 13 -4 16 -10z"/>
<path d="M850 3021 c0 -6 -3 -10 -7 -10 -18 3 -33 -2 -33 -10 0 -12 39 -6 53
8 5 5 4 11 -2 15 -6 4 -11 2 -11 -3z"/>
<path d="M7 2993 c7 -2 19 -2 26 0 6 3 1 5 -13 5 -14 0 -19 -2 -13 -5z"/>
<path d="M369 2977 c6 -6 11 -19 11 -29 0 -21 15 -24 23 -5 7 19 -6 42 -27 44
-13 1 -15 -2 -7 -10z"/>
<path d="M476 2974 c-8 -20 -3 -27 18 -22 12 2 13 6 2 21 -13 16 -14 16 -20 1z"/>
<path d="M600 2976 c0 -9 40 -13 46 -5 3 5 -6 9 -20 9 -14 0 -26 -2 -26 -4z"/>
<path d="M450 2913 c0 -13 5 -23 10 -23 13 0 13 11 0 30 -8 12 -10 11 -10 -7z"/>
<path d="M395 2910 c3 -5 8 -10 11 -10 2 0 4 5 4 10 0 6 -5 10 -11 10 -5 0 -7
-4 -4 -10z"/>
<path d="M650 2910 c-13 -9 -13 -10 0 -10 8 0 22 5 30 10 13 9 13 10 0 10 -8
0 -22 -5 -30 -10z"/>
<path d="M17 2819 c4 -13 8 -18 11 -10 2 7 -1 18 -6 23 -8 8 -9 4 -5 -13z"/>
<path d="M36 2792 c-3 -5 1 -9 9 -9 8 0 15 4 15 9 0 4 -4 8 -9 8 -6 0 -12 -4
-15 -8z"/>
<path d="M0 2766 c0 -15 18 -31 26 -23 7 7 -7 37 -17 37 -5 0 -9 -6 -9 -14z"/>
<path d="M772 2744 c-14 -16 -5 -18 17 -5 7 5 9 11 5 14 -5 3 -15 -1 -22 -9z"/>
<path d="M652 2737 c11 -9 15 -22 11 -38 -5 -23 -5 -23 10 -4 17 23 15 31 -16
45 -20 10 -20 10 -5 -3z"/>
<path d="M18 2723 c7 -3 16 -2 19 1 4 3 -2 6 -13 5 -11 0 -14 -3 -6 -6z"/>
<path d="M435 2690 c-3 -5 -1 -10 4 -10 6 0 11 5 11 10 0 6 -2 10 -4 10 -3 0
-8 -4 -11 -10z"/>
<path d="M830 2645 c0 -27 -18 -53 -27 -40 -5 6 -17 17 -28 25 -17 12 -16 10
3 -11 12 -14 22 -31 22 -37 0 -24 21 -11 37 23 13 27 14 38 5 47 -9 9 -12 8
-12 -7z"/>
<path d="M458 2633 c-3 -13 -2 -26 4 -29 14 -9 16 -2 8 26 -6 25 -6 25 -12 3z"/>
<path d="M504 2598 c10 -6 22 -6 26 -2 5 5 -3 10 -18 11 -22 1 -24 0 -8 -9z"/>
<path d="M1633 1520 c-42 -34 -1 -41 49 -9 31 20 32 21 6 15 -14 -3 -28 -2
-30 3 -2 5 -13 1 -25 -9z"/>
<path d="M816 1434 c-8 -20 -8 -24 2 -24 4 0 8 9 9 20 2 24 -3 26 -11 4z"/>
<path d="M1426 1405 c8 -37 14 -45 14 -19 0 10 -5 26 -10 34 -8 11 -9 7 -4
-15z"/>
<path d="M3312 1385 c-11 -13 -9 -15 14 -15 22 0 25 2 14 15 -15 18 -12 18
-28 0z"/>
<path d="M760 1386 c0 -2 7 -7 16 -10 8 -3 12 -2 9 4 -6 10 -25 14 -25 6z"/>
<path d="M800 1350 c-20 -12 -5 -24 16 -12 9 5 12 12 7 15 -5 3 -15 2 -23 -3z"/>
<path d="M3336 1324 c-3 -8 1 -14 9 -14 20 0 28 17 11 23 -8 3 -17 -1 -20 -9z"/>
<path d="M776 1311 c-4 -5 4 -15 16 -22 22 -12 22 -11 8 7 -8 10 -15 20 -16
22 -1 2 -5 -1 -8 -7z"/>
<path d="M1338 1284 c-16 -8 -28 -11 -28 -7 0 4 -7 -3 -16 -15 -9 -13 -26 -22
-40 -22 -13 0 -27 -6 -30 -14 -7 -18 -110 -69 -124 -61 -5 3 -19 -5 -31 -19
-15 -18 -27 -23 -37 -17 -9 5 -37 0 -75 -15 -34 -13 -66 -24 -71 -25 -6 0 -21
-13 -33 -29 l-23 -28 23 6 c12 3 27 11 32 19 13 17 85 53 105 53 21 -1 65 -26
63 -37 -1 -4 6 -6 15 -5 9 2 14 0 9 -4 -4 -4 -26 -7 -48 -5 -48 2 -82 -7 -74
-20 4 -5 -4 -9 -17 -9 -22 -1 -22 -1 -4 -15 10 -7 15 -18 12 -23 -8 -13 17
-22 60 -22 19 0 34 -5 34 -11 0 -8 6 -7 17 2 15 12 16 12 11 -8 -5 -17 1 -25
23 -36 l29 -14 -25 -11 c-14 -6 -25 -17 -25 -23 0 -8 -12 -10 -35 -6 -27 5
-35 2 -35 -10 0 -10 -6 -14 -20 -10 -11 3 -20 1 -20 -4 0 -5 -8 -9 -17 -10
-15 0 -14 -2 3 -9 11 -4 40 -4 65 0 47 9 64 6 30 -5 -12 -3 -21 -11 -21 -16 0
-5 -17 -9 -37 -9 -25 0 -33 -3 -24 -9 7 -5 29 -5 50 0 58 14 69 9 26 -11 -23
-11 -32 -19 -22 -19 10 -1 15 -5 12 -11 -9 -14 8 -13 23 2 6 6 13 10 16 7 2
-2 -4 -12 -14 -22 -15 -15 -20 -16 -31 -4 -8 7 -23 14 -33 14 -22 0 -58 -32
-48 -42 4 -3 -6 -1 -22 5 -16 6 -31 8 -34 5 -3 -3 -14 2 -24 12 -17 15 -19 15
-38 -2 -11 -10 -20 -24 -20 -31 0 -7 -4 -15 -9 -18 -5 -4 -7 3 -4 14 6 24 -2
24 -42 1 -20 -13 -29 -25 -28 -40 3 -22 -13 -29 -19 -9 -6 17 22 69 33 63 5
-4 9 8 9 24 0 25 4 31 20 31 12 0 30 9 42 20 12 11 18 20 14 20 -4 0 7 13 24
28 29 27 30 29 8 27 -13 -1 -27 1 -33 5 -15 11 -45 8 -38 -3 4 -6 0 -8 -10 -4
-11 4 -14 2 -10 -9 3 -7 0 -15 -6 -15 -33 -4 -71 -19 -71 -29 0 -5 6 -7 13 -4
10 3 13 -3 11 -23 -1 -15 -3 -30 -4 -33 -1 -3 -2 -9 -1 -13 1 -5 -9 -7 -21 -5
-15 2 -24 11 -26 26 -2 13 -10 22 -21 22 -26 0 -33 -11 -18 -28 10 -13 9 -14
-10 -4 -12 7 -30 9 -40 6 -10 -3 -24 -8 -32 -10 -10 -3 -11 -7 -1 -19 10 -12
9 -16 -4 -21 -9 -3 -23 -4 -31 0 -9 3 -15 0 -15 -9 0 -8 -8 -15 -18 -15 -10 0
-24 -6 -31 -12 -11 -11 -13 -10 -8 5 4 9 2 17 -3 17 -6 0 -10 -5 -10 -11 0 -5
-4 -8 -9 -5 -5 3 -11 -1 -15 -9 -5 -15 -27 -21 -25 -7 3 20 -2 32 -12 27 -6
-4 -17 1 -25 11 -10 14 -13 15 -9 3 4 -11 -3 -20 -24 -28 -16 -7 -32 -20 -35
-28 -5 -12 -1 -14 22 -10 23 5 28 2 29 -14 1 -10 -7 -24 -18 -29 -23 -13 -25
-30 -3 -30 14 0 14 -3 4 -15 -7 -9 -15 -13 -18 -10 -3 3 -11 0 -17 -5 -9 -8
-14 -5 -18 11 -4 15 -2 19 9 15 9 -4 14 2 14 16 0 18 -2 19 -17 7 -11 -10 -14
-10 -9 -1 4 6 5 12 3 12 -9 0 -44 -36 -50 -52 -5 -15 -4 -16 14 -5 17 10 22 9
30 -5 6 -10 19 -18 29 -18 10 0 22 -5 26 -12 5 -7 3 -8 -6 -3 -9 6 -12 4 -8
-7 5 -11 -2 -14 -23 -14 -17 0 -29 5 -29 13 0 7 -4 13 -10 13 -5 0 -7 -7 -4
-15 5 -11 -1 -15 -25 -15 -19 0 -30 -5 -28 -12 1 -7 -11 -15 -28 -18 -18 -4
-29 -12 -27 -19 2 -8 -6 -20 -18 -28 -11 -8 -17 -19 -14 -25 5 -8 1 -9 -10 -5
-39 15 -71 -35 -46 -73 6 -9 5 -17 -3 -22 -9 -6 -9 -8 0 -8 19 0 26 20 12 36
-10 12 -9 13 5 8 9 -3 16 -11 16 -16 0 -5 6 -8 12 -6 20 7 15 41 -7 62 -20 18
-20 18 4 4 14 -8 25 -24 26 -35 2 -23 29 -56 39 -46 3 4 6 1 6 -5 0 -6 7 -9
17 -5 10 4 14 2 10 -4 -8 -13 31 -5 51 10 6 5 12 6 12 2 0 -4 6 -3 13 3 21 17
69 11 91 -13 12 -12 28 -20 36 -18 10 3 9 0 -3 -7 -22 -14 -13 -30 13 -25 11
2 20 0 20 -5 0 -5 16 -1 36 10 19 11 39 18 43 16 4 -3 13 -1 21 5 12 7 10 9
-7 9 -19 0 -20 3 -10 25 11 23 28 35 26 18 -2 -11 13 -53 18 -53 2 0 14 5 25
11 15 8 19 8 13 0 -4 -8 10 -11 49 -9 33 2 58 8 60 16 3 6 13 12 21 12 9 0 13
-5 10 -10 -3 -5 1 -10 9 -10 9 0 16 7 16 15 0 8 5 15 11 15 5 0 7 -5 3 -12 -4
-7 -3 -8 5 -4 6 4 9 12 6 17 -4 5 1 12 9 15 20 8 21 41 2 41 -8 0 -12 -6 -9
-14 3 -7 -2 -13 -11 -13 -9 0 -15 3 -15 7 3 21 -3 33 -16 33 -13 0 -14 -4 -5
-21 7 -11 9 -23 6 -27 -3 -3 -6 0 -6 7 0 7 -4 10 -9 7 -5 -3 -11 4 -14 15 -4
13 -11 19 -20 16 -7 -3 -19 5 -27 16 -12 20 -12 21 3 9 13 -11 15 -10 10 10
-4 13 -2 20 3 15 5 -5 9 -14 9 -20 0 -16 22 -20 27 -5 8 22 -26 46 -50 37 -21
-8 -32 -49 -14 -49 5 0 9 -7 9 -15 0 -8 -5 -15 -11 -14 -33 4 -39 -1 -20 -16
18 -14 18 -14 -5 -15 -13 0 -21 -3 -17 -7 12 -12 -47 -31 -62 -20 -10 8 -9 15
4 36 9 14 23 32 32 38 9 7 12 13 6 14 -5 0 -19 2 -32 3 -19 2 -22 -1 -20 -21
2 -17 -5 -29 -24 -41 -33 -19 -44 -12 -28 18 7 13 7 20 2 16 -6 -3 -13 0 -15
6 -3 7 -6 0 -6 -17 -1 -23 -3 -27 -11 -15 -9 13 -11 13 -19 0 -6 -8 -6 -19 -1
-25 5 -6 2 -18 -7 -30 -14 -19 -15 -19 -12 5 2 14 0 30 -4 37 -9 15 61 113 81
113 7 0 10 5 6 12 -4 6 -3 8 3 5 5 -3 17 3 27 15 13 15 25 19 48 14 24 -5 29
-3 24 10 -4 9 -2 13 5 8 6 -4 14 -2 18 4 4 7 14 6 31 -3 23 -13 23 -14 4 -15
-11 0 -29 -6 -40 -14 -12 -9 -23 -11 -30 -5 -15 12 -64 -6 -64 -23 1 -15 24
-48 34 -48 3 0 6 7 6 15 0 8 8 15 18 15 10 0 28 7 40 16 13 9 22 11 22 4 0 -6
11 -5 29 5 23 11 31 12 34 2 3 -7 6 -5 6 6 1 10 -6 17 -16 18 -10 0 -5 5 11
10 34 10 45 4 28 -13 -7 -7 -12 -21 -12 -31 0 -17 2 -17 20 4 l21 24 -3 -25
c-2 -14 -12 -33 -23 -43 -20 -17 -20 -17 8 -11 17 4 27 2 27 -6 0 -6 8 -10 18
-9 20 3 98 -29 90 -36 -3 -3 -18 -1 -33 5 -15 6 -30 8 -33 6 -3 -3 3 -8 12
-12 9 -3 16 -13 16 -21 0 -10 -6 -13 -17 -9 -10 4 -14 4 -10 0 4 -4 2 -13 -4
-20 -8 -10 -5 -11 13 -7 22 5 21 3 -7 -25 -16 -16 -32 -30 -35 -30 -22 1 -30
-4 -25 -12 4 -6 11 -7 17 -4 7 5 9 1 5 -9 -3 -9 -2 -19 3 -22 6 -4 10 0 10 7
0 10 2 10 8 1 6 -10 16 -10 45 -1 20 6 37 15 37 19 0 4 7 10 16 13 13 5 15 1
10 -20 -4 -15 -3 -23 2 -20 6 3 12 -3 15 -14 3 -11 1 -20 -4 -20 -5 0 -9 5 -9
11 0 6 -9 1 -20 -12 -17 -21 -19 -21 -14 -4 6 16 4 18 -6 8 -17 -16 -3 -35 21
-28 10 4 19 2 19 -3 0 -18 63 -5 81 17 12 15 19 17 23 9 4 -7 4 -2 2 12 -5 24
-4 24 9 6 16 -21 45 -30 45 -15 0 6 5 7 10 4 14 -9 12 9 -2 24 -11 10 -9 12 7
9 15 -2 21 3 23 22 2 14 8 30 14 37 5 7 7 17 3 23 -3 5 -2 10 3 10 16 0 26 91
11 100 -6 5 -9 17 -6 29 3 13 -1 25 -11 31 -16 9 -16 9 1 10 9 0 18 -6 19 -12
0 -7 2 -17 3 -23 2 -5 4 -14 5 -20 1 -5 6 3 10 19 7 23 5 33 -8 44 -16 13 -16
13 0 8 35 -11 34 65 -1 91 -14 11 -13 12 8 8 20 -4 22 -1 17 18 -3 12 -6 25
-6 30 0 4 -5 7 -11 7 -5 0 -7 -4 -4 -10 3 -5 -2 -10 -11 -10 -16 0 -16 1 -1
18 10 10 14 23 10 28 -5 5 -4 6 0 2 14 -10 67 12 67 29 0 9 -6 12 -19 8 -21
-6 -36 19 -24 38 4 7 -5 4 -19 -5 -31 -20 -41 -7 -25 30 8 17 18 22 51 22 28
0 37 3 27 9 -11 7 -9 10 10 13 14 2 25 11 27 22 3 11 0 16 -7 12 -6 -4 -11 -3
-11 3 0 5 8 12 18 14 14 4 14 5 1 6 -9 0 -22 -6 -29 -14 -15 -18 -41 -20 -57
-4 -8 8 -13 8 -17 0 -4 -6 -14 -11 -23 -11 -13 0 -13 3 -3 15 7 9 30 15 54 16
53 1 88 11 94 27 5 17 -43 15 -62 -3 -8 -8 -17 -15 -21 -15 -11 0 -49 40 -39
41 5 1 38 6 74 13 62 10 66 13 85 51 11 22 37 71 58 110 33 62 37 77 37 143 0
40 4 81 9 90 5 9 6 24 2 34 -5 15 -9 15 -33 2z m-78 -123 c0 -20 -26 -36 -35
-21 -8 13 6 40 21 40 8 0 14 -9 14 -19z m-60 -18 c0 -8 -4 -11 -10 -8 -9 5
-66 -7 -107 -22 -10 -4 -14 -2 -10 4 4 6 22 14 41 17 19 4 39 13 46 21 14 16
40 9 40 -12z m-47 -49 c-30 -26 -43 -30 -43 -14 0 6 -10 10 -22 11 -19 0 -17
3 9 12 18 7 44 13 58 13 l26 2 -28 -24z m94 -19 c-7 -13 -13 -20 -15 -15 -2 5
-13 5 -26 0 -17 -6 -23 -5 -23 6 0 8 2 12 4 10 3 -2 16 2 31 10 37 19 42 18
29 -11z m-117 -39 c0 -20 -44 -28 -77 -14 l-28 12 45 6 c25 4 48 8 53 8 4 1 7
-4 7 -12z m40 -36 c0 -5 -5 -10 -11 -10 -5 0 -7 5 -4 10 3 6 8 10 11 10 2 0 4
-4 4 -10z m-386 -205 c-4 -8 -8 -15 -10 -15 -2 0 -4 7 -4 15 0 8 4 15 10 15 5
0 7 -7 4 -15z m-224 -95 c0 -11 -5 -20 -12 -20 -6 0 -8 3 -5 7 4 3 2 12 -4 20
-9 10 -8 13 5 13 9 0 16 -8 16 -20z m36 0 c0 -11 -4 -20 -8 -20 -4 0 -8 2 -8
4 0 2 -3 11 -6 20 -4 10 -1 16 8 16 7 0 14 -9 14 -20z m34 6 c0 -3 -4 -8 -10
-11 -5 -3 -10 -1 -10 4 0 6 5 11 10 11 6 0 10 -2 10 -4z m53 -12 c8 -8 -11
-44 -22 -44 -12 0 -23 29 -15 41 6 10 28 12 37 3z m375 -31 c22 -23 22 -45 -2
-49 -37 -5 -41 -22 -11 -50 l29 -27 -38 7 c-21 4 -36 3 -33 -1 3 -5 1 -15 -5
-23 -8 -12 -9 -12 -4 3 3 11 0 17 -10 17 -13 0 -15 -9 -12 -40 2 -22 0 -40 -4
-40 -5 0 -6 -11 -2 -25 3 -14 4 -25 1 -25 -12 0 -67 59 -67 72 0 7 -9 19 -20
26 -12 7 -18 17 -15 22 3 6 1 10 -4 10 -18 0 -12 -21 14 -56 30 -39 32 -60 6
-73 -14 -8 -23 -5 -40 13 -20 22 -20 63 0 50 5 -3 9 1 9 10 0 27 -12 45 -26
39 -8 -3 -14 1 -14 8 0 7 -3 9 -7 5 -4 -4 3 -16 17 -28 14 -11 19 -17 12 -13
-7 4 -19 1 -27 -5 -13 -11 -15 -7 -15 23 0 23 6 39 17 45 10 6 14 16 10 26 -4
10 -11 14 -17 11 -16 -10 -11 4 9 24 19 19 19 18 25 -10 5 -26 9 -29 32 -23
15 4 36 7 48 8 14 1 27 14 39 39 20 42 20 42 52 21 28 -18 53 -10 34 12 -16
20 -2 17 19 -3z m-535 -21 c-10 -10 -20 -17 -22 -16 -6 5 20 34 30 34 5 0 1
-8 -8 -18z m248 -25 c-8 -8 -11 -7 -11 4 0 20 13 34 18 19 3 -7 -1 -17 -7 -23z
m-284 17 c-3 -3 -12 -4 -19 -1 -8 3 -5 6 6 6 11 1 17 -2 13 -5z m157 -10 c3
-8 2 -13 -3 -9 -5 3 -11 0 -13 -7 -3 -7 -7 -5 -11 6 -4 10 -3 15 3 11 6 -3 10
-1 10 4 0 16 7 13 14 -5z m69 -60 c-20 -20 -28 -23 -34 -13 -5 8 -3 17 4 21 9
6 7 12 -6 22 -10 8 -15 20 -11 29 5 14 11 13 39 -9 l33 -25 -25 -25z m-248 33
c-19 -10 -36 0 -29 18 5 11 10 12 25 2 16 -10 16 -13 4 -20z m36 -10 c-10 -9
-11 -8 -5 6 3 10 9 15 12 12 3 -3 0 -11 -7 -18z m-81 -12 c0 -2 -13 -11 -30
-20 -25 -13 -29 -13 -24 -1 6 16 54 35 54 21z m50 -15 c0 -5 -4 -10 -10 -10
-5 0 -10 5 -10 10 0 6 5 10 10 10 6 0 10 -4 10 -10z m250 -25 c0 -8 -7 -15
-16 -15 -14 0 -14 3 -4 15 7 8 14 15 16 15 2 0 4 -7 4 -15z m-190 -15 c0 -5
-4 -10 -10 -10 -5 0 -10 5 -10 10 0 6 5 10 10 10 6 0 10 -4 10 -10z m-136 -31
c-4 -8 0 -8 15 0 17 10 21 9 21 -4 0 -14 -9 -17 -45 -17 -34 0 -38 3 -19 17
23 17 38 19 28 4z m343 5 c-3 -3 -12 -4 -19 -1 -8 3 -5 6 6 6 11 1 17 -2 13
-5z m-101 -41 c-10 -10 -19 5 -10 18 6 11 8 11 12 0 2 -7 1 -15 -2 -18z m-304
-47 c4 -6 17 -5 33 2 25 11 26 11 20 -9 -5 -15 -4 -19 5 -14 9 6 9 2 0 -16
-17 -32 -17 -32 -24 -14 -3 9 -2 13 4 10 6 -3 10 -1 10 4 0 14 -16 14 -40 1
-19 -10 -17 -38 3 -51 5 -4 7 -18 3 -32 -5 -22 -11 -25 -37 -22 -43 6 -50 15
-11 15 22 0 32 5 32 16 0 8 -4 12 -10 9 -5 -3 -15 -3 -21 1 -8 4 -7 9 2 15 12
7 12 9 0 9 -11 0 -11 3 0 18 11 14 10 14 -9 -2 -16 -14 -19 -22 -11 -32 12
-15 -5 -29 -26 -20 -13 4 -44 -22 -37 -31 2 -3 1 -7 -2 -10 -2 -3 -4 9 -4 26
1 31 27 58 42 44 3 -3 6 1 6 10 0 22 -14 22 -36 0 -9 -10 -28 -19 -42 -21 -39
-5 -62 -21 -56 -37 4 -10 0 -15 -11 -15 -9 0 -13 4 -10 10 3 6 1 10 -6 10 -10
0 -10 3 -1 12 7 7 12 20 12 30 0 15 5 17 26 12 24 -6 25 -5 14 15 -9 18 -14
20 -26 10 -15 -13 -17 -9 -8 15 3 9 10 13 15 10 5 -3 9 0 9 7 0 6 8 9 20 6 11
-3 20 -1 20 5 0 5 5 6 10 3 6 -4 8 -11 5 -16 -4 -5 -1 -9 4 -9 6 0 11 6 12 13
0 8 2 8 5 1 6 -14 54 -5 54 10 0 6 4 5 9 -3 5 -7 14 -10 20 -7 6 4 9 12 5 17
-7 12 19 7 28 -5z m533 -26 c10 8 15 8 21 -1 4 -8 3 -9 -4 -5 -7 4 -12 1 -12
-8 0 -8 6 -16 13 -19 6 -2 9 -7 6 -11 -8 -8 -49 32 -48 47 0 9 2 8 6 -1 4 -9
8 -10 18 -2z m-511 -36 c3 -8 2 -12 -4 -9 -6 3 -10 10 -10 16 0 14 7 11 14 -7z
m-257 -16 c-3 -8 -6 -5 -6 6 -1 11 2 17 5 13 3 -3 4 -12 1 -19z m921 -5 c13
-25 4 -43 -21 -42 -12 0 -16 3 -9 6 10 4 9 8 -5 19 -17 13 -17 13 2 14 l20 1
-20 9 c-19 8 -19 9 2 9 12 1 26 -7 31 -16z m52 7 c0 -5 -7 -10 -16 -10 -8 0
-12 5 -9 10 3 6 10 10 16 10 5 0 9 -4 9 -10z m22 -22 c3 -7 1 -24 -3 -38 l-7
-25 -2 25 -2 25 -7 -25 -7 -25 -12 22 c-16 30 -15 41 6 46 28 8 30 7 34 -5z
m-892 -25 c0 -26 -1 -26 -14 -7 -15 19 -15 19 -12 -1 5 -30 -3 -37 -21 -19
-14 13 -14 17 -2 25 8 5 10 9 4 10 -5 0 1 5 15 9 14 4 26 8 28 9 1 1 2 -11 2
-26z m444 -15 c-3 -4 -9 -8 -15 -8 -5 0 -9 4 -9 8 0 5 7 9 15 9 8 0 12 -4 9
-9z m246 -4 c0 -2 -9 -8 -20 -14 -15 -8 -18 -8 -14 3 4 11 34 21 34 11z m-446
-29 c-4 -8 -7 -15 -9 -15 -2 0 -5 7 -9 15 -3 9 0 15 9 15 9 0 12 -6 9 -15z
m566 -10 c17 3 36 7 42 8 6 1 12 -9 13 -22 2 -21 0 -22 -10 -7 -12 15 -13 15
-18 -3 -3 -14 -12 -19 -36 -17 -17 1 -31 -1 -31 -4 0 -4 -7 -7 -15 -7 -8 0
-15 4 -15 8 0 4 7 9 15 13 8 3 15 10 15 16 0 6 -4 8 -10 5 -5 -3 -10 1 -10 11
0 13 3 14 14 5 8 -7 28 -9 46 -6z m-200 -69 c0 -3 -4 -8 -10 -11 -5 -3 -10 -1
-10 4 0 6 5 11 10 11 6 0 10 -2 10 -4z"/>
<path d="M914 528 c-5 -7 -2 -9 8 -5 9 3 22 0 29 -6 11 -10 11 -9 0 6 -16 20
-27 22 -37 5z"/>
<path d="M920 470 c0 -5 5 -10 11 -10 5 0 7 5 4 10 -3 6 -8 10 -11 10 -2 0 -4
-4 -4 -10z"/>
<path d="M3467 1286 c-4 -10 0 -14 12 -13 11 1 17 7 14 14 -7 17 -20 17 -26
-1z"/>
<path d="M3510 1283 c0 -5 7 -18 15 -29 13 -18 14 -18 8 4 -5 22 -23 41 -23
25z"/>
<path d="M800 1222 c0 -5 7 -13 16 -16 10 -4 14 -1 12 6 -5 15 -28 23 -28 10z"/>
<path d="M3575 1220 c3 -5 10 -10 16 -10 5 0 9 5 9 10 0 6 -7 10 -16 10 -8 0
-12 -4 -9 -10z"/>
<path d="M3480 1200 c0 -5 5 -10 10 -10 6 0 10 5 10 10 0 6 -4 10 -10 10 -5 0
-10 -4 -10 -10z"/>
<path d="M885 1190 c-3 -5 -2 -10 4 -10 5 0 13 5 16 10 3 6 2 10 -4 10 -5 0
-13 -4 -16 -10z"/>
<path d="M760 1181 c0 -10 26 -9 36 2 4 4 -2 7 -14 7 -12 0 -22 -4 -22 -9z"/>
<path d="M3400 1114 c0 -8 -6 -14 -12 -14 -9 0 -9 -3 1 -9 10 -7 19 -4 29 7 7
9 11 11 7 5 -9 -18 10 -16 25 2 10 12 10 15 -1 16 -8 0 -22 2 -31 4 -10 2 -18
-3 -18 -11z"/>
<path d="M380 1094 c0 -8 9 -14 19 -14 30 0 34 17 6 22 -17 4 -25 1 -25 -8z"/>
<path d="M1996 1093 c-6 -14 -5 -15 5 -6 7 7 10 15 7 18 -3 3 -9 -2 -12 -12z"/>
<path d="M3340 1080 c0 -13 4 -19 11 -14 6 3 15 1 19 -6 5 -9 9 -9 14 -1 4 6
3 11 -3 11 -5 0 -17 7 -25 16 -15 14 -16 13 -16 -6z"/>
<path d="M3285 1070 c-3 -5 -1 -10 4 -10 6 0 11 5 11 10 0 6 -2 10 -4 10 -3 0
-8 -4 -11 -10z"/>
<path d="M3411 1071 c-9 -6 -6 -8 13 -8 14 0 23 3 20 8 -7 11 -15 11 -33 0z"/>
<path d="M183 1062 c-7 -4 -9 -13 -4 -21 6 -10 10 -9 15 5 8 20 4 25 -11 16z"/>
<path d="M235 1059 c-4 -6 -5 -12 -2 -15 2 -3 7 2 10 11 7 17 1 20 -8 4z"/>
<path d="M3275 1040 c-4 -6 -11 -7 -17 -4 -7 4 -8 2 -4 -5 6 -9 11 -9 21 -1 8
7 20 8 26 4 8 -4 9 -3 5 4 -9 15 -23 15 -31 2z"/>
<path d="M3580 1030 c0 -5 5 -10 11 -10 5 0 7 5 4 10 -3 6 -8 10 -11 10 -2 0
-4 -4 -4 -10z"/>
<path d="M3324 1018 c-4 -7 -4 -10 1 -6 4 4 14 3 22 -4 11 -8 17 -8 26 2 9 10
9 11 -1 6 -7 -4 -19 -3 -27 4 -10 8 -15 8 -21 -2z"/>
<path d="M2241 837 c-41 -86 -55 -127 -63 -185 -5 -41 -7 -79 -4 -86 2 -6 5 0
5 14 2 53 31 162 56 213 28 54 66 149 62 153 -1 1 -26 -48 -56 -109z"/>
<path d="M215 860 c-3 -5 -1 -10 4 -10 6 0 11 5 11 10 0 6 -2 10 -4 10 -3 0
-8 -4 -11 -10z"/>
<path d="M3290 811 c0 -9 30 -24 36 -18 2 1 -6 8 -16 15 -11 7 -20 8 -20 3z"/>
<path d="M3350 801 c0 -22 44 -89 55 -84 20 7 27 -13 10 -27 -8 -7 -15 -16
-15 -21 0 -5 9 0 20 11 23 23 17 50 -11 50 -11 0 -19 7 -19 16 0 12 8 14 38
10 27 -5 33 -3 22 4 -11 8 -5 10 25 6 37 -4 38 -3 21 10 -23 17 -48 18 -63 3
-7 -7 -21 -4 -47 10 -20 11 -36 17 -36 12z"/>
<path d="M842 761 c-11 -7 -11 -9 0 -14 9 -3 15 1 15 9 0 8 -1 14 -1 14 -1 0
-7 -4 -14 -9z"/>
<path d="M1560 750 c-12 -22 -4 -64 15 -80 33 -27 68 29 46 76 -13 29 -46 32
-61 4z"/>
<path d="M555 750 c3 -5 8 -10 11 -10 2 0 4 5 4 10 0 6 -5 10 -11 10 -5 0 -7
-4 -4 -10z"/>
<path d="M3570 750 c0 -5 5 -10 10 -10 6 0 10 5 10 10 0 6 -4 10 -10 10 -5 0
-10 -4 -10 -10z"/>
<path d="M1225 608 c3 -60 10 -139 15 -176 6 -37 10 -150 8 -250 -2 -100 0
-182 5 -182 14 0 11 379 -4 485 -5 39 -14 106 -19 150 -9 80 -9 80 -5 -27z"/>
<path d="M3425 671 c-3 -5 -1 -12 5 -16 5 -3 10 1 10 9 0 18 -6 21 -15 7z"/>
<path d="M1160 661 c0 -5 7 -11 15 -15 9 -3 15 0 15 9 0 8 -7 15 -15 15 -8 0
-15 -4 -15 -9z"/>
<path d="M16 615 c4 -8 8 -15 10 -15 2 0 4 7 4 15 0 8 -4 15 -10 15 -5 0 -7
-7 -4 -15z"/>
<path d="M50 619 c0 -5 5 -7 10 -4 6 3 10 8 10 11 0 2 -4 4 -10 4 -5 0 -10 -5
-10 -11z"/>
<path d="M43 593 c-7 -3 -13 -12 -13 -20 0 -12 3 -13 13 -4 8 6 17 8 20 4 4
-3 7 -1 7 5 0 14 -12 20 -27 15z"/>
<path d="M117 564 c-3 -3 -3 -13 0 -21 5 -13 0 -15 -29 -9 -32 6 -36 4 -40
-18 -4 -21 -2 -24 11 -17 17 10 76 22 102 23 8 0 21 8 27 19 7 10 8 19 3 19
-5 0 -12 -8 -16 -17 -6 -17 -7 -16 -18 2 -12 20 -30 29 -40 19z"/>
<path d="M2162 485 c0 -16 2 -22 5 -12 2 9 2 23 0 30 -3 6 -5 -1 -5 -18z"/>
<path d="M135 490 c4 -6 11 -8 16 -5 14 9 11 15 -7 15 -8 0 -12 -5 -9 -10z"/>
<path d="M2145 358 c-4 -42 -5 -82 -2 -90 2 -7 8 22 12 64 4 42 5 82 2 90 -2
7 -8 -22 -12 -64z"/>
<path d="M455 360 c3 -5 8 -10 11 -10 2 0 4 5 4 10 0 6 -5 10 -11 10 -5 0 -7
-4 -4 -10z"/>
<path d="M573 348 c-2 -18 0 -20 7 -8 12 18 13 30 2 30 -4 0 -9 -10 -9 -22z"/>
<path d="M466 313 c-6 -14 -5 -15 5 -6 7 7 10 15 7 18 -3 3 -9 -2 -12 -12z"/>
<path d="M55 240 c-3 -5 -2 -10 4 -10 5 0 13 5 16 10 3 6 2 10 -4 10 -5 0 -13
-4 -16 -10z"/>
<path d="M1542 228 c-14 -14 -16 -58 -3 -58 5 0 8 -8 7 -17 -1 -13 6 -18 24
-18 20 0 26 6 28 28 3 27 -20 77 -36 77 -5 0 -13 -5 -20 -12z"/>
<path d="M184 209 c-3 -5 -9 -7 -14 -4 -5 3 -11 2 -14 -3 -2 -4 4 -9 15 -9 10
-1 19 3 19 9 0 6 3 8 7 4 4 -4 -3 -15 -15 -25 -13 -9 -24 -28 -24 -41 -1 -14
-6 -31 -12 -39 -10 -12 -8 -12 12 0 14 9 21 21 18 32 -2 9 0 15 4 12 5 -3 10
0 12 5 2 6 10 12 18 13 8 2 21 6 28 10 8 6 12 2 12 -12 0 -12 5 -21 11 -21 6
0 9 6 6 14 -3 8 2 16 14 19 10 3 19 2 19 -2 0 -4 7 -16 16 -27 8 -10 12 -12 8
-4 -4 8 -7 27 -6 42 2 21 -1 26 -13 22 -8 -4 -15 -1 -15 6 0 6 -5 8 -10 5 -6
-4 -8 -10 -5 -15 3 -5 0 -12 -6 -16 -7 -4 -9 -3 -6 3 4 6 -10 15 -33 21 -24 6
-42 6 -46 1z"/>
<path d="M710 195 c-11 -13 -10 -14 4 -9 9 3 16 10 16 15 0 13 -6 11 -20 -6z"/>
<path d="M2134 174 c3 -9 6 -26 6 -38 0 -13 12 -31 30 -45 l31 -22 -31 60
c-17 34 -33 61 -36 61 -3 0 -3 -7 0 -16z"/>
<path d="M111 153 c-7 -17 -10 -19 -7 -7 2 13 -2 21 -10 21 -12 0 -19 -17 -15
-39 0 -4 -5 -5 -12 -2 -7 2 -25 -6 -40 -20 -31 -28 -34 -38 -11 -29 9 3 20 0
26 -8 7 -10 8 -8 3 7 -5 19 -1 22 28 26 35 4 40 -3 22 -32 -8 -13 -7 -13 8 -1
9 7 15 17 12 21 -3 5 2 15 10 23 17 17 20 53 6 61 -5 4 -14 -6 -20 -21z"/>
<path d="M406 163 c-6 -14 -5 -15 5 -6 7 7 10 15 7 18 -3 3 -9 -2 -12 -12z"/>
<path d="M656 155 c-11 -8 -15 -15 -9 -15 6 0 16 7 23 15 16 19 11 19 -14 0z"/>
<path d="M683 145 c-10 -23 -9 -25 13 -25 13 0 24 5 24 11 0 6 -6 9 -14 6 -10
-4 -12 0 -9 14 7 27 0 24 -14 -6z"/>
<path d="M50 150 c0 -5 5 -10 11 -10 5 0 7 5 4 10 -3 6 -8 10 -11 10 -2 0 -4
-4 -4 -10z"/>
<path d="M351 133 c-1 -7 -7 -13 -15 -13 -8 0 -16 -6 -19 -14 -7 -18 18 -42
28 -26 3 5 0 10 -7 11 -7 1 -3 4 8 7 16 6 19 12 13 27 -4 11 -8 14 -8 8z"/>
<path d="M375 130 c3 -5 8 -10 11 -10 2 0 4 5 4 10 0 6 -5 10 -11 10 -5 0 -7
-4 -4 -10z"/>
<path d="M234 113 c-4 -14 -21 -24 -55 -32 -27 -7 -47 -17 -43 -22 3 -5 0 -9
-6 -9 -6 0 -8 -5 -5 -11 4 -6 0 -9 -10 -7 -10 2 -20 -3 -23 -11 -3 -8 0 -11 7
-7 6 4 11 1 11 -6 0 -8 5 -6 11 5 5 9 19 17 29 17 11 0 20 7 20 15 0 8 3 14 8
14 17 -3 30 2 51 23 19 17 27 19 42 10 27 -17 35 -15 36 9 1 15 -3 20 -20 17
-12 -1 -28 1 -35 6 -9 5 -15 2 -18 -11z"/>
<path d="M558 73 c7 -3 16 -2 19 1 4 3 -2 6 -13 5 -11 0 -14 -3 -6 -6z"/>
<path d="M275 60 c-3 -5 -2 -10 4 -10 5 0 13 5 16 10 3 6 2 10 -4 10 -5 0 -13
-4 -16 -10z"/>
<path d="M50 10 c0 -5 5 -10 11 -10 5 0 7 5 4 10 -3 6 -8 10 -11 10 -2 0 -4
-4 -4 -10z"/>
</g>
</svg>
